<svg width="24" height="21" viewBox="0 0 24 21" fill="none" xmlns="http://www.w3.org/2000/svg">
<path fill-rule="evenodd" clip-rule="evenodd" d="M21.8777 17.72L19.6393 15.665C19.4581 15.495 19.223 15.405 18.983 15.405H6.7822V13.405H18.361C18.8998 13.405 19.3406 12.96 19.3406 12.405V6.33002H21.8777V17.72ZM4.52424 11.665L2.28587 13.72V2.33002H17.3814V11.405H5.18057C5.05812 11.405 4.93567 11.43 4.82302 11.475C4.71526 11.52 4.6124 11.58 4.52424 11.665ZM22.8573 4.33002H19.3406V1.33002C19.3406 0.775017 18.8998 0.330017 18.361 0.330017H1.30628C0.767507 0.330017 0.326691 0.775017 0.326691 1.33002V15.965C0.326691 16.36 0.551997 16.72 0.909548 16.88C1.03689 16.94 1.16914 16.965 1.30628 16.965C1.54138 16.965 1.77649 16.88 1.96261 16.71L4.82302 14.08V16.405C4.82302 16.96 5.26383 17.405 5.80261 17.405H18.6059L22.201 20.71C22.3871 20.88 22.6222 20.965 22.8573 20.965C22.9944 20.965 23.1267 20.94 23.254 20.88C23.6116 20.72 23.8369 20.36 23.8369 19.965V5.33002C23.8369 4.77502 23.3961 4.33002 22.8573 4.33002Z" fill="#B8C5D3"/>
</svg>
