<svg width="452" height="201" viewBox="0 0 452 201" fill="none" xmlns="http://www.w3.org/2000/svg">
<path d="M271.26 3.04688V3.75781L267.138 13H265.805L269.92 4.08594H264.533V3.04688H271.26ZM274.302 8.2627L273.29 8.00293L273.789 3.04688H278.896V4.21582H274.862L274.562 6.92285C274.744 6.81803 274.974 6.72005 275.252 6.62891C275.535 6.53776 275.858 6.49219 276.223 6.49219C276.683 6.49219 277.095 6.57194 277.46 6.73145C277.825 6.88639 278.134 7.1097 278.39 7.40137C278.649 7.69303 278.848 8.04395 278.984 8.4541C279.121 8.86426 279.189 9.32227 279.189 9.82812C279.189 10.3066 279.123 10.7464 278.991 11.1475C278.864 11.5485 278.67 11.8994 278.41 12.2002C278.15 12.4964 277.822 12.7266 277.426 12.8906C277.034 13.0547 276.571 13.1367 276.038 13.1367C275.637 13.1367 275.257 13.082 274.896 12.9727C274.541 12.8587 274.222 12.6878 273.939 12.46C273.661 12.2275 273.434 11.9404 273.256 11.5986C273.083 11.2523 272.973 10.8467 272.928 10.3818H274.131C274.186 10.7555 274.295 11.07 274.459 11.3252C274.623 11.5804 274.837 11.7741 275.102 11.9062C275.37 12.0339 275.683 12.0977 276.038 12.0977C276.339 12.0977 276.605 12.0452 276.838 11.9404C277.07 11.8356 277.266 11.6852 277.426 11.4893C277.585 11.2933 277.706 11.0563 277.788 10.7783C277.875 10.5003 277.918 10.1882 277.918 9.8418C277.918 9.52734 277.875 9.23568 277.788 8.9668C277.701 8.69792 277.572 8.46322 277.398 8.2627C277.23 8.06217 277.022 7.90723 276.776 7.79785C276.53 7.68392 276.248 7.62695 275.929 7.62695C275.505 7.62695 275.184 7.68392 274.965 7.79785C274.751 7.91178 274.53 8.06673 274.302 8.2627ZM280.468 5.4873V4.96094C280.468 4.58268 280.55 4.23861 280.714 3.92871C280.878 3.61882 281.113 3.37044 281.418 3.18359C281.723 2.99674 282.086 2.90332 282.505 2.90332C282.933 2.90332 283.298 2.99674 283.599 3.18359C283.904 3.37044 284.139 3.61882 284.303 3.92871C284.467 4.23861 284.549 4.58268 284.549 4.96094V5.4873C284.549 5.85645 284.467 6.19596 284.303 6.50586C284.143 6.81576 283.911 7.06413 283.605 7.25098C283.305 7.43783 282.942 7.53125 282.519 7.53125C282.095 7.53125 281.728 7.43783 281.418 7.25098C281.113 7.06413 280.878 6.81576 280.714 6.50586C280.55 6.19596 280.468 5.85645 280.468 5.4873ZM281.418 4.96094V5.4873C281.418 5.69694 281.457 5.89518 281.534 6.08203C281.616 6.26888 281.739 6.42155 281.903 6.54004C282.067 6.65397 282.272 6.71094 282.519 6.71094C282.765 6.71094 282.967 6.65397 283.127 6.54004C283.286 6.42155 283.405 6.26888 283.482 6.08203C283.56 5.89518 283.599 5.69694 283.599 5.4873V4.96094C283.599 4.74674 283.558 4.54622 283.476 4.35938C283.398 4.16797 283.277 4.0153 283.113 3.90137C282.954 3.78288 282.751 3.72363 282.505 3.72363C282.263 3.72363 282.061 3.78288 281.896 3.90137C281.737 4.0153 281.616 4.16797 281.534 4.35938C281.457 4.54622 281.418 4.74674 281.418 4.96094ZM285.314 11.0928V10.5596C285.314 10.1859 285.396 9.84408 285.561 9.53418C285.725 9.22428 285.959 8.97591 286.265 8.78906C286.57 8.60221 286.932 8.50879 287.352 8.50879C287.78 8.50879 288.145 8.60221 288.445 8.78906C288.751 8.97591 288.985 9.22428 289.149 9.53418C289.313 9.84408 289.396 10.1859 289.396 10.5596V11.0928C289.396 11.4665 289.313 11.8083 289.149 12.1182C288.99 12.4281 288.757 12.6764 288.452 12.8633C288.151 13.0501 287.789 13.1436 287.365 13.1436C286.941 13.1436 286.577 13.0501 286.271 12.8633C285.966 12.6764 285.729 12.4281 285.561 12.1182C285.396 11.8083 285.314 11.4665 285.314 11.0928ZM286.265 10.5596V11.0928C286.265 11.3024 286.303 11.5029 286.381 11.6943C286.463 11.8812 286.586 12.0339 286.75 12.1523C286.914 12.2663 287.119 12.3232 287.365 12.3232C287.611 12.3232 287.814 12.2663 287.974 12.1523C288.138 12.0339 288.258 11.8812 288.336 11.6943C288.413 11.5075 288.452 11.307 288.452 11.0928V10.5596C288.452 10.3454 288.411 10.1449 288.329 9.95801C288.252 9.77116 288.131 9.62077 287.967 9.50684C287.807 9.38835 287.602 9.3291 287.352 9.3291C287.11 9.3291 286.907 9.38835 286.743 9.50684C286.584 9.62077 286.463 9.77116 286.381 9.95801C286.303 10.1449 286.265 10.3454 286.265 10.5596ZM287.666 4.46191L282.806 12.2412L282.095 11.79L286.955 4.01074L287.666 4.46191Z" fill="#748AA1"/>
<path d="M346.983 2.99219V13H345.719V4.57129L343.169 5.50098V4.35938L346.785 2.99219H346.983ZM356.95 7.23047V8.74805C356.95 9.5638 356.877 10.252 356.731 10.8125C356.586 11.373 356.376 11.8242 356.103 12.166C355.829 12.5078 355.499 12.7562 355.111 12.9111C354.729 13.0615 354.296 13.1367 353.812 13.1367C353.43 13.1367 353.076 13.0889 352.753 12.9932C352.429 12.8975 352.138 12.7448 351.878 12.5352C351.623 12.321 351.404 12.043 351.222 11.7012C351.039 11.3594 350.9 10.9447 350.805 10.457C350.709 9.9694 350.661 9.39974 350.661 8.74805V7.23047C350.661 6.41471 350.734 5.73112 350.88 5.17969C351.03 4.62826 351.242 4.1862 351.516 3.85352C351.789 3.51628 352.117 3.27474 352.5 3.12891C352.887 2.98307 353.32 2.91016 353.799 2.91016C354.186 2.91016 354.542 2.95801 354.865 3.05371C355.193 3.14486 355.485 3.29297 355.74 3.49805C355.995 3.69857 356.212 3.96745 356.39 4.30469C356.572 4.63737 356.711 5.04525 356.807 5.52832C356.902 6.01139 356.95 6.57878 356.95 7.23047ZM355.679 8.95312V7.01855C355.679 6.57194 355.651 6.18001 355.597 5.84277C355.547 5.50098 355.471 5.20931 355.371 4.96777C355.271 4.72624 355.143 4.53027 354.988 4.37988C354.838 4.22949 354.662 4.12012 354.462 4.05176C354.266 3.97884 354.045 3.94238 353.799 3.94238C353.498 3.94238 353.231 3.99935 352.999 4.11328C352.767 4.22266 352.571 4.39811 352.411 4.63965C352.256 4.88118 352.138 5.19792 352.056 5.58984C351.974 5.98177 351.933 6.45801 351.933 7.01855V8.95312C351.933 9.39974 351.958 9.79395 352.008 10.1357C352.062 10.4775 352.142 10.7738 352.247 11.0244C352.352 11.2705 352.479 11.4733 352.63 11.6328C352.78 11.7923 352.953 11.9108 353.149 11.9883C353.35 12.0612 353.571 12.0977 353.812 12.0977C354.122 12.0977 354.394 12.0384 354.626 11.9199C354.858 11.8014 355.052 11.6169 355.207 11.3662C355.367 11.111 355.485 10.7852 355.562 10.3887C355.64 9.98763 355.679 9.50911 355.679 8.95312ZM364.825 7.23047V8.74805C364.825 9.5638 364.752 10.252 364.606 10.8125C364.461 11.373 364.251 11.8242 363.978 12.166C363.704 12.5078 363.374 12.7562 362.986 12.9111C362.604 13.0615 362.171 13.1367 361.688 13.1367C361.305 13.1367 360.951 13.0889 360.628 12.9932C360.304 12.8975 360.013 12.7448 359.753 12.5352C359.498 12.321 359.279 12.043 359.097 11.7012C358.914 11.3594 358.775 10.9447 358.68 10.457C358.584 9.9694 358.536 9.39974 358.536 8.74805V7.23047C358.536 6.41471 358.609 5.73112 358.755 5.17969C358.905 4.62826 359.117 4.1862 359.391 3.85352C359.664 3.51628 359.992 3.27474 360.375 3.12891C360.762 2.98307 361.195 2.91016 361.674 2.91016C362.061 2.91016 362.417 2.95801 362.74 3.05371C363.068 3.14486 363.36 3.29297 363.615 3.49805C363.87 3.69857 364.087 3.96745 364.265 4.30469C364.447 4.63737 364.586 5.04525 364.682 5.52832C364.777 6.01139 364.825 6.57878 364.825 7.23047ZM363.554 8.95312V7.01855C363.554 6.57194 363.526 6.18001 363.472 5.84277C363.422 5.50098 363.346 5.20931 363.246 4.96777C363.146 4.72624 363.018 4.53027 362.863 4.37988C362.713 4.22949 362.537 4.12012 362.337 4.05176C362.141 3.97884 361.92 3.94238 361.674 3.94238C361.373 3.94238 361.106 3.99935 360.874 4.11328C360.642 4.22266 360.446 4.39811 360.286 4.63965C360.131 4.88118 360.013 5.19792 359.931 5.58984C359.849 5.98177 359.808 6.45801 359.808 7.01855V8.95312C359.808 9.39974 359.833 9.79395 359.883 10.1357C359.938 10.4775 360.017 10.7738 360.122 11.0244C360.227 11.2705 360.354 11.4733 360.505 11.6328C360.655 11.7923 360.828 11.9108 361.024 11.9883C361.225 12.0612 361.446 12.0977 361.688 12.0977C361.997 12.0977 362.269 12.0384 362.501 11.9199C362.733 11.8014 362.927 11.6169 363.082 11.3662C363.242 11.111 363.36 10.7852 363.438 10.3887C363.515 9.98763 363.554 9.50911 363.554 8.95312ZM366.343 5.4873V4.96094C366.343 4.58268 366.425 4.23861 366.589 3.92871C366.753 3.61882 366.988 3.37044 367.293 3.18359C367.598 2.99674 367.961 2.90332 368.38 2.90332C368.808 2.90332 369.173 2.99674 369.474 3.18359C369.779 3.37044 370.014 3.61882 370.178 3.92871C370.342 4.23861 370.424 4.58268 370.424 4.96094V5.4873C370.424 5.85645 370.342 6.19596 370.178 6.50586C370.018 6.81576 369.786 7.06413 369.48 7.25098C369.18 7.43783 368.817 7.53125 368.394 7.53125C367.97 7.53125 367.603 7.43783 367.293 7.25098C366.988 7.06413 366.753 6.81576 366.589 6.50586C366.425 6.19596 366.343 5.85645 366.343 5.4873ZM367.293 4.96094V5.4873C367.293 5.69694 367.332 5.89518 367.409 6.08203C367.491 6.26888 367.614 6.42155 367.778 6.54004C367.942 6.65397 368.147 6.71094 368.394 6.71094C368.64 6.71094 368.842 6.65397 369.002 6.54004C369.161 6.42155 369.28 6.26888 369.357 6.08203C369.435 5.89518 369.474 5.69694 369.474 5.4873V4.96094C369.474 4.74674 369.433 4.54622 369.351 4.35938C369.273 4.16797 369.152 4.0153 368.988 3.90137C368.829 3.78288 368.626 3.72363 368.38 3.72363C368.138 3.72363 367.936 3.78288 367.771 3.90137C367.612 4.0153 367.491 4.16797 367.409 4.35938C367.332 4.54622 367.293 4.74674 367.293 4.96094ZM371.189 11.0928V10.5596C371.189 10.1859 371.271 9.84408 371.436 9.53418C371.6 9.22428 371.834 8.97591 372.14 8.78906C372.445 8.60221 372.807 8.50879 373.227 8.50879C373.655 8.50879 374.02 8.60221 374.32 8.78906C374.626 8.97591 374.86 9.22428 375.024 9.53418C375.188 9.84408 375.271 10.1859 375.271 10.5596V11.0928C375.271 11.4665 375.188 11.8083 375.024 12.1182C374.865 12.4281 374.632 12.6764 374.327 12.8633C374.026 13.0501 373.664 13.1436 373.24 13.1436C372.816 13.1436 372.452 13.0501 372.146 12.8633C371.841 12.6764 371.604 12.4281 371.436 12.1182C371.271 11.8083 371.189 11.4665 371.189 11.0928ZM372.14 10.5596V11.0928C372.14 11.3024 372.178 11.5029 372.256 11.6943C372.338 11.8812 372.461 12.0339 372.625 12.1523C372.789 12.2663 372.994 12.3232 373.24 12.3232C373.486 12.3232 373.689 12.2663 373.849 12.1523C374.013 12.0339 374.133 11.8812 374.211 11.6943C374.288 11.5075 374.327 11.307 374.327 11.0928V10.5596C374.327 10.3454 374.286 10.1449 374.204 9.95801C374.127 9.77116 374.006 9.62077 373.842 9.50684C373.682 9.38835 373.477 9.3291 373.227 9.3291C372.985 9.3291 372.782 9.38835 372.618 9.50684C372.459 9.62077 372.338 9.77116 372.256 9.95801C372.178 10.1449 372.14 10.3454 372.14 10.5596ZM373.541 4.46191L368.681 12.2412L367.97 11.79L372.83 4.01074L373.541 4.46191Z" fill="#748AA1"/>
<path d="M37.0752 7.23047V8.74805C37.0752 9.5638 37.0023 10.252 36.8564 10.8125C36.7106 11.373 36.501 11.8242 36.2275 12.166C35.9541 12.5078 35.6237 12.7562 35.2363 12.9111C34.8535 13.0615 34.4206 13.1367 33.9375 13.1367C33.5547 13.1367 33.2015 13.0889 32.8779 12.9932C32.5544 12.8975 32.2627 12.7448 32.0029 12.5352C31.7477 12.321 31.529 12.043 31.3467 11.7012C31.1644 11.3594 31.0254 10.9447 30.9297 10.457C30.834 9.9694 30.7861 9.39974 30.7861 8.74805V7.23047C30.7861 6.41471 30.859 5.73112 31.0049 5.17969C31.1553 4.62826 31.3672 4.1862 31.6406 3.85352C31.9141 3.51628 32.2422 3.27474 32.625 3.12891C33.0124 2.98307 33.4453 2.91016 33.9238 2.91016C34.3112 2.91016 34.6667 2.95801 34.9902 3.05371C35.3184 3.14486 35.61 3.29297 35.8652 3.49805C36.1204 3.69857 36.3369 3.96745 36.5146 4.30469C36.6969 4.63737 36.8359 5.04525 36.9316 5.52832C37.0273 6.01139 37.0752 6.57878 37.0752 7.23047ZM35.8037 8.95312V7.01855C35.8037 6.57194 35.7764 6.18001 35.7217 5.84277C35.6715 5.50098 35.5964 5.20931 35.4961 4.96777C35.3958 4.72624 35.2682 4.53027 35.1133 4.37988C34.9629 4.22949 34.7874 4.12012 34.5869 4.05176C34.391 3.97884 34.1699 3.94238 33.9238 3.94238C33.623 3.94238 33.3564 3.99935 33.124 4.11328C32.8916 4.22266 32.6956 4.39811 32.5361 4.63965C32.3812 4.88118 32.2627 5.19792 32.1807 5.58984C32.0986 5.98177 32.0576 6.45801 32.0576 7.01855V8.95312C32.0576 9.39974 32.0827 9.79395 32.1328 10.1357C32.1875 10.4775 32.2673 10.7738 32.3721 11.0244C32.4769 11.2705 32.6045 11.4733 32.7549 11.6328C32.9053 11.7923 33.0785 11.9108 33.2744 11.9883C33.4749 12.0612 33.696 12.0977 33.9375 12.0977C34.2474 12.0977 34.5186 12.0384 34.751 11.9199C34.9834 11.8014 35.1771 11.6169 35.332 11.3662C35.4915 11.111 35.61 10.7852 35.6875 10.3887C35.765 9.98763 35.8037 9.50911 35.8037 8.95312ZM38.5928 5.4873V4.96094C38.5928 4.58268 38.6748 4.23861 38.8389 3.92871C39.0029 3.61882 39.2376 3.37044 39.543 3.18359C39.8483 2.99674 40.2106 2.90332 40.6299 2.90332C41.0583 2.90332 41.4229 2.99674 41.7236 3.18359C42.029 3.37044 42.2637 3.61882 42.4277 3.92871C42.5918 4.23861 42.6738 4.58268 42.6738 4.96094V5.4873C42.6738 5.85645 42.5918 6.19596 42.4277 6.50586C42.2682 6.81576 42.0358 7.06413 41.7305 7.25098C41.4297 7.43783 41.0674 7.53125 40.6436 7.53125C40.2197 7.53125 39.8529 7.43783 39.543 7.25098C39.2376 7.06413 39.0029 6.81576 38.8389 6.50586C38.6748 6.19596 38.5928 5.85645 38.5928 5.4873ZM39.543 4.96094V5.4873C39.543 5.69694 39.5817 5.89518 39.6592 6.08203C39.7412 6.26888 39.8643 6.42155 40.0283 6.54004C40.1924 6.65397 40.3975 6.71094 40.6436 6.71094C40.8896 6.71094 41.0924 6.65397 41.252 6.54004C41.4115 6.42155 41.5299 6.26888 41.6074 6.08203C41.6849 5.89518 41.7236 5.69694 41.7236 5.4873V4.96094C41.7236 4.74674 41.6826 4.54622 41.6006 4.35938C41.5231 4.16797 41.4023 4.0153 41.2383 3.90137C41.0788 3.78288 40.876 3.72363 40.6299 3.72363C40.3883 3.72363 40.1855 3.78288 40.0215 3.90137C39.862 4.0153 39.7412 4.16797 39.6592 4.35938C39.5817 4.54622 39.543 4.74674 39.543 4.96094ZM43.4395 11.0928V10.5596C43.4395 10.1859 43.5215 9.84408 43.6855 9.53418C43.8496 9.22428 44.0843 8.97591 44.3896 8.78906C44.695 8.60221 45.0573 8.50879 45.4766 8.50879C45.9049 8.50879 46.2695 8.60221 46.5703 8.78906C46.8757 8.97591 47.1104 9.22428 47.2744 9.53418C47.4385 9.84408 47.5205 10.1859 47.5205 10.5596V11.0928C47.5205 11.4665 47.4385 11.8083 47.2744 12.1182C47.1149 12.4281 46.8825 12.6764 46.5771 12.8633C46.2764 13.0501 45.9141 13.1436 45.4902 13.1436C45.0664 13.1436 44.7018 13.0501 44.3965 12.8633C44.0911 12.6764 43.8542 12.4281 43.6855 12.1182C43.5215 11.8083 43.4395 11.4665 43.4395 11.0928ZM44.3896 10.5596V11.0928C44.3896 11.3024 44.4284 11.5029 44.5059 11.6943C44.5879 11.8812 44.7109 12.0339 44.875 12.1523C45.0391 12.2663 45.2441 12.3232 45.4902 12.3232C45.7363 12.3232 45.9391 12.2663 46.0986 12.1523C46.2627 12.0339 46.3835 11.8812 46.4609 11.6943C46.5384 11.5075 46.5771 11.307 46.5771 11.0928V10.5596C46.5771 10.3454 46.5361 10.1449 46.4541 9.95801C46.3766 9.77116 46.2559 9.62077 46.0918 9.50684C45.9323 9.38835 45.7272 9.3291 45.4766 9.3291C45.235 9.3291 45.0322 9.38835 44.8682 9.50684C44.7087 9.62077 44.5879 9.77116 44.5059 9.95801C44.4284 10.1449 44.3896 10.3454 44.3896 10.5596ZM45.791 4.46191L40.9307 12.2412L40.2197 11.79L45.0801 4.01074L45.791 4.46191Z" fill="#748AA1"/>
<path d="M115.349 11.9609V13H108.834V12.0908L112.095 8.46094C112.496 8.01432 112.806 7.63607 113.024 7.32617C113.248 7.01172 113.403 6.73145 113.489 6.48535C113.58 6.2347 113.626 5.97949 113.626 5.71973C113.626 5.3916 113.558 5.09538 113.421 4.83105C113.289 4.56217 113.093 4.34798 112.833 4.18848C112.573 4.02897 112.259 3.94922 111.89 3.94922C111.448 3.94922 111.078 4.03581 110.782 4.20898C110.491 4.3776 110.272 4.61458 110.126 4.91992C109.98 5.22526 109.907 5.57617 109.907 5.97266H108.643C108.643 5.41211 108.766 4.89941 109.012 4.43457C109.258 3.96973 109.622 3.60059 110.105 3.32715C110.589 3.04915 111.183 2.91016 111.89 2.91016C112.519 2.91016 113.056 3.02181 113.503 3.24512C113.95 3.46387 114.291 3.77376 114.528 4.1748C114.77 4.57129 114.891 5.03613 114.891 5.56934C114.891 5.861 114.84 6.15723 114.74 6.45801C114.645 6.75423 114.51 7.05046 114.337 7.34668C114.168 7.6429 113.97 7.93457 113.742 8.22168C113.519 8.50879 113.28 8.79134 113.024 9.06934L110.358 11.9609H115.349ZM118.302 8.2627L117.29 8.00293L117.789 3.04688H122.896V4.21582H118.862L118.562 6.92285C118.744 6.81803 118.974 6.72005 119.252 6.62891C119.535 6.53776 119.858 6.49219 120.223 6.49219C120.683 6.49219 121.095 6.57194 121.46 6.73145C121.825 6.88639 122.134 7.1097 122.39 7.40137C122.649 7.69303 122.848 8.04395 122.984 8.4541C123.121 8.86426 123.189 9.32227 123.189 9.82812C123.189 10.3066 123.123 10.7464 122.991 11.1475C122.864 11.5485 122.67 11.8994 122.41 12.2002C122.15 12.4964 121.822 12.7266 121.426 12.8906C121.034 13.0547 120.571 13.1367 120.038 13.1367C119.637 13.1367 119.257 13.082 118.896 12.9727C118.541 12.8587 118.222 12.6878 117.939 12.46C117.661 12.2275 117.434 11.9404 117.256 11.5986C117.083 11.2523 116.973 10.8467 116.928 10.3818H118.131C118.186 10.7555 118.295 11.07 118.459 11.3252C118.623 11.5804 118.837 11.7741 119.102 11.9062C119.37 12.0339 119.683 12.0977 120.038 12.0977C120.339 12.0977 120.605 12.0452 120.838 11.9404C121.07 11.8356 121.266 11.6852 121.426 11.4893C121.585 11.2933 121.706 11.0563 121.788 10.7783C121.875 10.5003 121.918 10.1882 121.918 9.8418C121.918 9.52734 121.875 9.23568 121.788 8.9668C121.701 8.69792 121.572 8.46322 121.398 8.2627C121.23 8.06217 121.022 7.90723 120.776 7.79785C120.53 7.68392 120.248 7.62695 119.929 7.62695C119.505 7.62695 119.184 7.68392 118.965 7.79785C118.751 7.91178 118.53 8.06673 118.302 8.2627ZM124.468 5.4873V4.96094C124.468 4.58268 124.55 4.23861 124.714 3.92871C124.878 3.61882 125.113 3.37044 125.418 3.18359C125.723 2.99674 126.086 2.90332 126.505 2.90332C126.933 2.90332 127.298 2.99674 127.599 3.18359C127.904 3.37044 128.139 3.61882 128.303 3.92871C128.467 4.23861 128.549 4.58268 128.549 4.96094V5.4873C128.549 5.85645 128.467 6.19596 128.303 6.50586C128.143 6.81576 127.911 7.06413 127.605 7.25098C127.305 7.43783 126.942 7.53125 126.519 7.53125C126.095 7.53125 125.728 7.43783 125.418 7.25098C125.113 7.06413 124.878 6.81576 124.714 6.50586C124.55 6.19596 124.468 5.85645 124.468 5.4873ZM125.418 4.96094V5.4873C125.418 5.69694 125.457 5.89518 125.534 6.08203C125.616 6.26888 125.739 6.42155 125.903 6.54004C126.067 6.65397 126.272 6.71094 126.519 6.71094C126.765 6.71094 126.967 6.65397 127.127 6.54004C127.286 6.42155 127.405 6.26888 127.482 6.08203C127.56 5.89518 127.599 5.69694 127.599 5.4873V4.96094C127.599 4.74674 127.558 4.54622 127.476 4.35938C127.398 4.16797 127.277 4.0153 127.113 3.90137C126.954 3.78288 126.751 3.72363 126.505 3.72363C126.263 3.72363 126.061 3.78288 125.896 3.90137C125.737 4.0153 125.616 4.16797 125.534 4.35938C125.457 4.54622 125.418 4.74674 125.418 4.96094ZM129.314 11.0928V10.5596C129.314 10.1859 129.396 9.84408 129.561 9.53418C129.725 9.22428 129.959 8.97591 130.265 8.78906C130.57 8.60221 130.932 8.50879 131.352 8.50879C131.78 8.50879 132.145 8.60221 132.445 8.78906C132.751 8.97591 132.985 9.22428 133.149 9.53418C133.313 9.84408 133.396 10.1859 133.396 10.5596V11.0928C133.396 11.4665 133.313 11.8083 133.149 12.1182C132.99 12.4281 132.757 12.6764 132.452 12.8633C132.151 13.0501 131.789 13.1436 131.365 13.1436C130.941 13.1436 130.577 13.0501 130.271 12.8633C129.966 12.6764 129.729 12.4281 129.561 12.1182C129.396 11.8083 129.314 11.4665 129.314 11.0928ZM130.265 10.5596V11.0928C130.265 11.3024 130.303 11.5029 130.381 11.6943C130.463 11.8812 130.586 12.0339 130.75 12.1523C130.914 12.2663 131.119 12.3232 131.365 12.3232C131.611 12.3232 131.814 12.2663 131.974 12.1523C132.138 12.0339 132.258 11.8812 132.336 11.6943C132.413 11.5075 132.452 11.307 132.452 11.0928V10.5596C132.452 10.3454 132.411 10.1449 132.329 9.95801C132.252 9.77116 132.131 9.62077 131.967 9.50684C131.807 9.38835 131.602 9.3291 131.352 9.3291C131.11 9.3291 130.907 9.38835 130.743 9.50684C130.584 9.62077 130.463 9.77116 130.381 9.95801C130.303 10.1449 130.265 10.3454 130.265 10.5596ZM131.666 4.46191L126.806 12.2412L126.095 11.79L130.955 4.01074L131.666 4.46191Z" fill="#748AA1"/>
<path d="M188.427 8.2627L187.415 8.00293L187.914 3.04688H193.021V4.21582H188.987L188.687 6.92285C188.869 6.81803 189.099 6.72005 189.377 6.62891C189.66 6.53776 189.983 6.49219 190.348 6.49219C190.808 6.49219 191.22 6.57194 191.585 6.73145C191.95 6.88639 192.259 7.1097 192.515 7.40137C192.774 7.69303 192.973 8.04395 193.109 8.4541C193.246 8.86426 193.314 9.32227 193.314 9.82812C193.314 10.3066 193.248 10.7464 193.116 11.1475C192.989 11.5485 192.795 11.8994 192.535 12.2002C192.275 12.4964 191.947 12.7266 191.551 12.8906C191.159 13.0547 190.696 13.1367 190.163 13.1367C189.762 13.1367 189.382 13.082 189.021 12.9727C188.666 12.8587 188.347 12.6878 188.064 12.46C187.786 12.2275 187.559 11.9404 187.381 11.5986C187.208 11.2523 187.098 10.8467 187.053 10.3818H188.256C188.311 10.7555 188.42 11.07 188.584 11.3252C188.748 11.5804 188.962 11.7741 189.227 11.9062C189.495 12.0339 189.808 12.0977 190.163 12.0977C190.464 12.0977 190.73 12.0452 190.963 11.9404C191.195 11.8356 191.391 11.6852 191.551 11.4893C191.71 11.2933 191.831 11.0563 191.913 10.7783C192 10.5003 192.043 10.1882 192.043 9.8418C192.043 9.52734 192 9.23568 191.913 8.9668C191.826 8.69792 191.697 8.46322 191.523 8.2627C191.355 8.06217 191.147 7.90723 190.901 7.79785C190.655 7.68392 190.373 7.62695 190.054 7.62695C189.63 7.62695 189.309 7.68392 189.09 7.79785C188.876 7.91178 188.655 8.06673 188.427 8.2627ZM200.95 7.23047V8.74805C200.95 9.5638 200.877 10.252 200.731 10.8125C200.586 11.373 200.376 11.8242 200.103 12.166C199.829 12.5078 199.499 12.7562 199.111 12.9111C198.729 13.0615 198.296 13.1367 197.812 13.1367C197.43 13.1367 197.076 13.0889 196.753 12.9932C196.429 12.8975 196.138 12.7448 195.878 12.5352C195.623 12.321 195.404 12.043 195.222 11.7012C195.039 11.3594 194.9 10.9447 194.805 10.457C194.709 9.9694 194.661 9.39974 194.661 8.74805V7.23047C194.661 6.41471 194.734 5.73112 194.88 5.17969C195.03 4.62826 195.242 4.1862 195.516 3.85352C195.789 3.51628 196.117 3.27474 196.5 3.12891C196.887 2.98307 197.32 2.91016 197.799 2.91016C198.186 2.91016 198.542 2.95801 198.865 3.05371C199.193 3.14486 199.485 3.29297 199.74 3.49805C199.995 3.69857 200.212 3.96745 200.39 4.30469C200.572 4.63737 200.711 5.04525 200.807 5.52832C200.902 6.01139 200.95 6.57878 200.95 7.23047ZM199.679 8.95312V7.01855C199.679 6.57194 199.651 6.18001 199.597 5.84277C199.547 5.50098 199.471 5.20931 199.371 4.96777C199.271 4.72624 199.143 4.53027 198.988 4.37988C198.838 4.22949 198.662 4.12012 198.462 4.05176C198.266 3.97884 198.045 3.94238 197.799 3.94238C197.498 3.94238 197.231 3.99935 196.999 4.11328C196.767 4.22266 196.571 4.39811 196.411 4.63965C196.256 4.88118 196.138 5.19792 196.056 5.58984C195.974 5.98177 195.933 6.45801 195.933 7.01855V8.95312C195.933 9.39974 195.958 9.79395 196.008 10.1357C196.062 10.4775 196.142 10.7738 196.247 11.0244C196.352 11.2705 196.479 11.4733 196.63 11.6328C196.78 11.7923 196.953 11.9108 197.149 11.9883C197.35 12.0612 197.571 12.0977 197.812 12.0977C198.122 12.0977 198.394 12.0384 198.626 11.9199C198.858 11.8014 199.052 11.6169 199.207 11.3662C199.367 11.111 199.485 10.7852 199.562 10.3887C199.64 9.98763 199.679 9.50911 199.679 8.95312ZM202.468 5.4873V4.96094C202.468 4.58268 202.55 4.23861 202.714 3.92871C202.878 3.61882 203.113 3.37044 203.418 3.18359C203.723 2.99674 204.086 2.90332 204.505 2.90332C204.933 2.90332 205.298 2.99674 205.599 3.18359C205.904 3.37044 206.139 3.61882 206.303 3.92871C206.467 4.23861 206.549 4.58268 206.549 4.96094V5.4873C206.549 5.85645 206.467 6.19596 206.303 6.50586C206.143 6.81576 205.911 7.06413 205.605 7.25098C205.305 7.43783 204.942 7.53125 204.519 7.53125C204.095 7.53125 203.728 7.43783 203.418 7.25098C203.113 7.06413 202.878 6.81576 202.714 6.50586C202.55 6.19596 202.468 5.85645 202.468 5.4873ZM203.418 4.96094V5.4873C203.418 5.69694 203.457 5.89518 203.534 6.08203C203.616 6.26888 203.739 6.42155 203.903 6.54004C204.067 6.65397 204.272 6.71094 204.519 6.71094C204.765 6.71094 204.967 6.65397 205.127 6.54004C205.286 6.42155 205.405 6.26888 205.482 6.08203C205.56 5.89518 205.599 5.69694 205.599 5.4873V4.96094C205.599 4.74674 205.558 4.54622 205.476 4.35938C205.398 4.16797 205.277 4.0153 205.113 3.90137C204.954 3.78288 204.751 3.72363 204.505 3.72363C204.263 3.72363 204.061 3.78288 203.896 3.90137C203.737 4.0153 203.616 4.16797 203.534 4.35938C203.457 4.54622 203.418 4.74674 203.418 4.96094ZM207.314 11.0928V10.5596C207.314 10.1859 207.396 9.84408 207.561 9.53418C207.725 9.22428 207.959 8.97591 208.265 8.78906C208.57 8.60221 208.932 8.50879 209.352 8.50879C209.78 8.50879 210.145 8.60221 210.445 8.78906C210.751 8.97591 210.985 9.22428 211.149 9.53418C211.313 9.84408 211.396 10.1859 211.396 10.5596V11.0928C211.396 11.4665 211.313 11.8083 211.149 12.1182C210.99 12.4281 210.757 12.6764 210.452 12.8633C210.151 13.0501 209.789 13.1436 209.365 13.1436C208.941 13.1436 208.577 13.0501 208.271 12.8633C207.966 12.6764 207.729 12.4281 207.561 12.1182C207.396 11.8083 207.314 11.4665 207.314 11.0928ZM208.265 10.5596V11.0928C208.265 11.3024 208.303 11.5029 208.381 11.6943C208.463 11.8812 208.586 12.0339 208.75 12.1523C208.914 12.2663 209.119 12.3232 209.365 12.3232C209.611 12.3232 209.814 12.2663 209.974 12.1523C210.138 12.0339 210.258 11.8812 210.336 11.6943C210.413 11.5075 210.452 11.307 210.452 11.0928V10.5596C210.452 10.3454 210.411 10.1449 210.329 9.95801C210.252 9.77116 210.131 9.62077 209.967 9.50684C209.807 9.38835 209.602 9.3291 209.352 9.3291C209.11 9.3291 208.907 9.38835 208.743 9.50684C208.584 9.62077 208.463 9.77116 208.381 9.95801C208.303 10.1449 208.265 10.3454 208.265 10.5596ZM209.666 4.46191L204.806 12.2412L204.095 11.79L208.955 4.01074L209.666 4.46191Z" fill="#748AA1"/>
<rect x="30" y="34" width="1" height="166" fill="#EBEDF4"/>
<rect x="109" y="34" width="1" height="166" fill="#EBEDF4"/>
<rect x="188" y="34" width="1" height="166" fill="#EBEDF4"/>
<rect x="267" y="34" width="1" height="166" fill="#EBEDF4"/>
<rect x="346" y="34" width="1" height="166" fill="#EBEDF4"/>
<rect y="200" width="452" height="1" fill="#EBEDF4"/>
<rect y="34" width="452" height="1" fill="#EBEDF4"/>
<path d="M303.103 176.307C303.103 176.913 302.961 177.428 302.679 177.852C302.401 178.271 302.022 178.59 301.544 178.809C301.07 179.027 300.535 179.137 299.938 179.137C299.34 179.137 298.803 179.027 298.324 178.809C297.846 178.59 297.467 178.271 297.189 177.852C296.911 177.428 296.772 176.913 296.772 176.307C296.772 175.91 296.848 175.548 296.998 175.22C297.153 174.887 297.369 174.598 297.647 174.352C297.93 174.105 298.263 173.916 298.646 173.784C299.033 173.647 299.459 173.579 299.924 173.579C300.535 173.579 301.079 173.698 301.558 173.935C302.036 174.167 302.412 174.488 302.686 174.898C302.964 175.309 303.103 175.778 303.103 176.307ZM301.831 176.279C301.831 175.91 301.751 175.584 301.592 175.302C301.432 175.015 301.209 174.791 300.922 174.632C300.635 174.472 300.302 174.393 299.924 174.393C299.536 174.393 299.201 174.472 298.919 174.632C298.641 174.791 298.424 175.015 298.27 175.302C298.115 175.584 298.037 175.91 298.037 176.279C298.037 176.662 298.112 176.99 298.263 177.264C298.418 177.533 298.636 177.74 298.919 177.886C299.206 178.027 299.546 178.098 299.938 178.098C300.329 178.098 300.667 178.027 300.949 177.886C301.232 177.74 301.448 177.533 301.599 177.264C301.754 176.99 301.831 176.662 301.831 176.279ZM302.87 171.638C302.87 172.121 302.743 172.556 302.487 172.943C302.232 173.331 301.883 173.636 301.441 173.859C300.999 174.083 300.498 174.194 299.938 174.194C299.368 174.194 298.86 174.083 298.413 173.859C297.971 173.636 297.625 173.331 297.374 172.943C297.123 172.556 296.998 172.121 296.998 171.638C296.998 171.059 297.123 170.567 297.374 170.161C297.629 169.756 297.978 169.446 298.42 169.231C298.862 169.017 299.366 168.91 299.931 168.91C300.5 168.91 301.006 169.017 301.448 169.231C301.89 169.446 302.237 169.756 302.487 170.161C302.743 170.567 302.87 171.059 302.87 171.638ZM301.605 171.658C301.605 171.326 301.535 171.032 301.394 170.776C301.252 170.521 301.056 170.321 300.806 170.175C300.555 170.024 300.263 169.949 299.931 169.949C299.598 169.949 299.306 170.02 299.056 170.161C298.81 170.298 298.616 170.494 298.475 170.749C298.338 171.004 298.27 171.307 298.27 171.658C298.27 172 298.338 172.299 298.475 172.554C298.616 172.809 298.812 173.007 299.062 173.148C299.313 173.29 299.605 173.36 299.938 173.36C300.27 173.36 300.56 173.29 300.806 173.148C301.056 173.007 301.252 172.809 301.394 172.554C301.535 172.299 301.605 172 301.605 171.658ZM308.858 168.992V179H307.594V170.571L305.044 171.501V170.359L308.66 168.992H308.858ZM312.468 171.487V170.961C312.468 170.583 312.55 170.239 312.714 169.929C312.878 169.619 313.113 169.37 313.418 169.184C313.723 168.997 314.086 168.903 314.505 168.903C314.933 168.903 315.298 168.997 315.599 169.184C315.904 169.37 316.139 169.619 316.303 169.929C316.467 170.239 316.549 170.583 316.549 170.961V171.487C316.549 171.856 316.467 172.196 316.303 172.506C316.143 172.816 315.911 173.064 315.605 173.251C315.305 173.438 314.942 173.531 314.519 173.531C314.095 173.531 313.728 173.438 313.418 173.251C313.113 173.064 312.878 172.816 312.714 172.506C312.55 172.196 312.468 171.856 312.468 171.487ZM313.418 170.961V171.487C313.418 171.697 313.457 171.895 313.534 172.082C313.616 172.269 313.739 172.422 313.903 172.54C314.067 172.654 314.272 172.711 314.519 172.711C314.765 172.711 314.967 172.654 315.127 172.54C315.286 172.422 315.405 172.269 315.482 172.082C315.56 171.895 315.599 171.697 315.599 171.487V170.961C315.599 170.747 315.558 170.546 315.476 170.359C315.398 170.168 315.277 170.015 315.113 169.901C314.954 169.783 314.751 169.724 314.505 169.724C314.263 169.724 314.061 169.783 313.896 169.901C313.737 170.015 313.616 170.168 313.534 170.359C313.457 170.546 313.418 170.747 313.418 170.961ZM317.314 177.093V176.56C317.314 176.186 317.396 175.844 317.561 175.534C317.725 175.224 317.959 174.976 318.265 174.789C318.57 174.602 318.932 174.509 319.352 174.509C319.78 174.509 320.145 174.602 320.445 174.789C320.751 174.976 320.985 175.224 321.149 175.534C321.313 175.844 321.396 176.186 321.396 176.56V177.093C321.396 177.466 321.313 177.808 321.149 178.118C320.99 178.428 320.757 178.676 320.452 178.863C320.151 179.05 319.789 179.144 319.365 179.144C318.941 179.144 318.577 179.05 318.271 178.863C317.966 178.676 317.729 178.428 317.561 178.118C317.396 177.808 317.314 177.466 317.314 177.093ZM318.265 176.56V177.093C318.265 177.302 318.303 177.503 318.381 177.694C318.463 177.881 318.586 178.034 318.75 178.152C318.914 178.266 319.119 178.323 319.365 178.323C319.611 178.323 319.814 178.266 319.974 178.152C320.138 178.034 320.258 177.881 320.336 177.694C320.413 177.507 320.452 177.307 320.452 177.093V176.56C320.452 176.345 320.411 176.145 320.329 175.958C320.252 175.771 320.131 175.621 319.967 175.507C319.807 175.388 319.602 175.329 319.352 175.329C319.11 175.329 318.907 175.388 318.743 175.507C318.584 175.621 318.463 175.771 318.381 175.958C318.303 176.145 318.265 176.345 318.265 176.56ZM319.666 170.462L314.806 178.241L314.095 177.79L318.955 170.011L319.666 170.462Z" fill="#31394D"/>
<g filter="url(#filter0_d_316_298)">
<path fill-rule="evenodd" clip-rule="evenodd" d="M30 176V172H34H38H282C284.209 172 286 173.791 286 176C286 178.209 284.209 180 282 180H38H34H30V176Z" fill="#4072EE"/>
</g>
<g filter="url(#filter1_d_316_298)">
<path fill-rule="evenodd" clip-rule="evenodd" d="M30 59V55H34H38H232C234.209 55 236 56.7909 236 59C236 61.2091 234.209 63 232 63H38H34H30V59Z" fill="#B558F6"/>
</g>
<path d="M251.681 52.0332H251.79V53.1064H251.681C251.011 53.1064 250.45 53.2158 249.999 53.4346C249.548 53.6488 249.19 53.9382 248.926 54.3027C248.661 54.6628 248.47 55.0684 248.352 55.5195C248.238 55.9707 248.181 56.4287 248.181 56.8936V58.3564C248.181 58.7985 248.233 59.1904 248.338 59.5322C248.443 59.8695 248.586 60.1543 248.769 60.3867C248.951 60.6191 249.156 60.7946 249.384 60.9131C249.616 61.0316 249.858 61.0908 250.108 61.0908C250.4 61.0908 250.66 61.0361 250.888 60.9268C251.116 60.8128 251.307 60.6556 251.462 60.4551C251.621 60.25 251.742 60.0085 251.824 59.7305C251.906 59.4525 251.947 59.1471 251.947 58.8145C251.947 58.5182 251.911 58.2334 251.838 57.96C251.765 57.682 251.653 57.4359 251.503 57.2217C251.353 57.0029 251.163 56.832 250.936 56.709C250.712 56.5814 250.446 56.5176 250.136 56.5176C249.785 56.5176 249.457 56.6042 249.151 56.7773C248.851 56.946 248.602 57.1693 248.406 57.4473C248.215 57.7207 248.105 58.0192 248.078 58.3428L247.408 58.3359C247.472 57.8255 247.59 57.3903 247.764 57.0303C247.941 56.6657 248.16 56.3695 248.42 56.1416C248.684 55.9092 248.978 55.7406 249.302 55.6357C249.63 55.5264 249.976 55.4717 250.341 55.4717C250.838 55.4717 251.266 55.5651 251.626 55.752C251.986 55.9388 252.282 56.1895 252.515 56.5039C252.747 56.8138 252.918 57.1647 253.027 57.5566C253.141 57.944 253.198 58.3428 253.198 58.7529C253.198 59.2223 253.132 59.6621 253 60.0723C252.868 60.4824 252.67 60.8424 252.405 61.1523C252.146 61.4622 251.824 61.7038 251.441 61.877C251.059 62.0501 250.614 62.1367 250.108 62.1367C249.571 62.1367 249.101 62.0273 248.7 61.8086C248.299 61.5853 247.966 61.2891 247.702 60.9199C247.438 60.5508 247.24 60.1406 247.107 59.6895C246.975 59.2383 246.909 58.7803 246.909 58.3154V57.7207C246.909 57.0189 246.98 56.3307 247.121 55.6562C247.262 54.9818 247.506 54.3711 247.853 53.8242C248.203 53.2773 248.689 52.8421 249.309 52.5186C249.928 52.195 250.719 52.0332 251.681 52.0332ZM256.548 56.4014H257.45C257.892 56.4014 258.257 56.3285 258.544 56.1826C258.836 56.0322 259.052 55.8294 259.193 55.5742C259.339 55.3145 259.412 55.0228 259.412 54.6992C259.412 54.3164 259.348 53.9951 259.221 53.7354C259.093 53.4756 258.902 53.2796 258.646 53.1475C258.391 53.0153 258.068 52.9492 257.676 52.9492C257.32 52.9492 257.006 53.0199 256.732 53.1611C256.464 53.2979 256.252 53.4938 256.097 53.749C255.946 54.0042 255.871 54.305 255.871 54.6514H254.606C254.606 54.1455 254.734 53.6852 254.989 53.2705C255.244 52.8558 255.602 52.5254 256.062 52.2793C256.527 52.0332 257.065 51.9102 257.676 51.9102C258.277 51.9102 258.804 52.0173 259.255 52.2314C259.706 52.4411 260.057 52.7555 260.308 53.1748C260.558 53.5895 260.684 54.1068 260.684 54.7266C260.684 54.9772 260.624 55.2461 260.506 55.5332C260.392 55.8158 260.212 56.0801 259.966 56.3262C259.724 56.5723 259.41 56.7751 259.022 56.9346C258.635 57.0895 258.17 57.167 257.628 57.167H256.548V56.4014ZM256.548 57.4404V56.6816H257.628C258.261 56.6816 258.785 56.7568 259.2 56.9072C259.615 57.0576 259.941 57.2581 260.178 57.5088C260.419 57.7594 260.588 58.0352 260.684 58.3359C260.784 58.6322 260.834 58.9284 260.834 59.2246C260.834 59.6895 260.754 60.1019 260.595 60.4619C260.44 60.8219 260.219 61.1273 259.932 61.3779C259.649 61.6286 259.316 61.8177 258.934 61.9453C258.551 62.0729 258.134 62.1367 257.683 62.1367C257.25 62.1367 256.842 62.0752 256.459 61.9521C256.081 61.8291 255.746 61.6514 255.454 61.4189C255.162 61.182 254.935 60.8926 254.771 60.5508C254.606 60.2044 254.524 59.8102 254.524 59.3682H255.789C255.789 59.7145 255.864 60.0176 256.015 60.2773C256.17 60.5371 256.388 60.7399 256.671 60.8857C256.958 61.027 257.295 61.0977 257.683 61.0977C258.07 61.0977 258.403 61.0316 258.681 60.8994C258.963 60.7627 259.18 60.5576 259.33 60.2842C259.485 60.0107 259.562 59.6667 259.562 59.252C259.562 58.8372 259.476 58.4977 259.303 58.2334C259.13 57.9645 258.883 57.7663 258.564 57.6387C258.25 57.5065 257.879 57.4404 257.45 57.4404H256.548ZM262.468 54.4873V53.9609C262.468 53.5827 262.55 53.2386 262.714 52.9287C262.878 52.6188 263.113 52.3704 263.418 52.1836C263.723 51.9967 264.086 51.9033 264.505 51.9033C264.933 51.9033 265.298 51.9967 265.599 52.1836C265.904 52.3704 266.139 52.6188 266.303 52.9287C266.467 53.2386 266.549 53.5827 266.549 53.9609V54.4873C266.549 54.8564 266.467 55.196 266.303 55.5059C266.143 55.8158 265.911 56.0641 265.605 56.251C265.305 56.4378 264.942 56.5312 264.519 56.5312C264.095 56.5312 263.728 56.4378 263.418 56.251C263.113 56.0641 262.878 55.8158 262.714 55.5059C262.55 55.196 262.468 54.8564 262.468 54.4873ZM263.418 53.9609V54.4873C263.418 54.6969 263.457 54.8952 263.534 55.082C263.616 55.2689 263.739 55.4215 263.903 55.54C264.067 55.654 264.272 55.7109 264.519 55.7109C264.765 55.7109 264.967 55.654 265.127 55.54C265.286 55.4215 265.405 55.2689 265.482 55.082C265.56 54.8952 265.599 54.6969 265.599 54.4873V53.9609C265.599 53.7467 265.558 53.5462 265.476 53.3594C265.398 53.168 265.277 53.0153 265.113 52.9014C264.954 52.7829 264.751 52.7236 264.505 52.7236C264.263 52.7236 264.061 52.7829 263.896 52.9014C263.737 53.0153 263.616 53.168 263.534 53.3594C263.457 53.5462 263.418 53.7467 263.418 53.9609ZM267.314 60.0928V59.5596C267.314 59.1859 267.396 58.8441 267.561 58.5342C267.725 58.2243 267.959 57.9759 268.265 57.7891C268.57 57.6022 268.932 57.5088 269.352 57.5088C269.78 57.5088 270.145 57.6022 270.445 57.7891C270.751 57.9759 270.985 58.2243 271.149 58.5342C271.313 58.8441 271.396 59.1859 271.396 59.5596V60.0928C271.396 60.4665 271.313 60.8083 271.149 61.1182C270.99 61.4281 270.757 61.6764 270.452 61.8633C270.151 62.0501 269.789 62.1436 269.365 62.1436C268.941 62.1436 268.577 62.0501 268.271 61.8633C267.966 61.6764 267.729 61.4281 267.561 61.1182C267.396 60.8083 267.314 60.4665 267.314 60.0928ZM268.265 59.5596V60.0928C268.265 60.3024 268.303 60.5029 268.381 60.6943C268.463 60.8812 268.586 61.0339 268.75 61.1523C268.914 61.2663 269.119 61.3232 269.365 61.3232C269.611 61.3232 269.814 61.2663 269.974 61.1523C270.138 61.0339 270.258 60.8812 270.336 60.6943C270.413 60.5075 270.452 60.307 270.452 60.0928V59.5596C270.452 59.3454 270.411 59.1449 270.329 58.958C270.252 58.7712 270.131 58.6208 269.967 58.5068C269.807 58.3883 269.602 58.3291 269.352 58.3291C269.11 58.3291 268.907 58.3883 268.743 58.5068C268.584 58.6208 268.463 58.7712 268.381 58.958C268.303 59.1449 268.265 59.3454 268.265 59.5596ZM269.666 53.4619L264.806 61.2412L264.095 60.79L268.955 53.0107L269.666 53.4619Z" fill="#31394D"/>
<g filter="url(#filter2_d_316_298)">
<path fill-rule="evenodd" clip-rule="evenodd" d="M30 98V94H34H38H162C164.209 94 166 95.7909 166 98C166 100.209 164.209 102 162 102H38H34H30V98Z" fill="#29CB97"/>
</g>
<path d="M183.554 97.6504V98.6895H176.362V97.9443L180.819 91.0469H181.852L180.744 93.043L177.798 97.6504H183.554ZM182.166 91.0469V101H180.901V91.0469H182.166ZM191.135 91.0469V91.7578L187.013 101H185.68L189.795 92.0859H184.408V91.0469H191.135ZM192.468 93.4873V92.9609C192.468 92.5827 192.55 92.2386 192.714 91.9287C192.878 91.6188 193.113 91.3704 193.418 91.1836C193.723 90.9967 194.086 90.9033 194.505 90.9033C194.933 90.9033 195.298 90.9967 195.599 91.1836C195.904 91.3704 196.139 91.6188 196.303 91.9287C196.467 92.2386 196.549 92.5827 196.549 92.9609V93.4873C196.549 93.8564 196.467 94.196 196.303 94.5059C196.143 94.8158 195.911 95.0641 195.605 95.251C195.305 95.4378 194.942 95.5312 194.519 95.5312C194.095 95.5312 193.728 95.4378 193.418 95.251C193.113 95.0641 192.878 94.8158 192.714 94.5059C192.55 94.196 192.468 93.8564 192.468 93.4873ZM193.418 92.9609V93.4873C193.418 93.6969 193.457 93.8952 193.534 94.082C193.616 94.2689 193.739 94.4215 193.903 94.54C194.067 94.654 194.272 94.7109 194.519 94.7109C194.765 94.7109 194.967 94.654 195.127 94.54C195.286 94.4215 195.405 94.2689 195.482 94.082C195.56 93.8952 195.599 93.6969 195.599 93.4873V92.9609C195.599 92.7467 195.558 92.5462 195.476 92.3594C195.398 92.168 195.277 92.0153 195.113 91.9014C194.954 91.7829 194.751 91.7236 194.505 91.7236C194.263 91.7236 194.061 91.7829 193.896 91.9014C193.737 92.0153 193.616 92.168 193.534 92.3594C193.457 92.5462 193.418 92.7467 193.418 92.9609ZM197.314 99.0928V98.5596C197.314 98.1859 197.396 97.8441 197.561 97.5342C197.725 97.2243 197.959 96.9759 198.265 96.7891C198.57 96.6022 198.932 96.5088 199.352 96.5088C199.78 96.5088 200.145 96.6022 200.445 96.7891C200.751 96.9759 200.985 97.2243 201.149 97.5342C201.313 97.8441 201.396 98.1859 201.396 98.5596V99.0928C201.396 99.4665 201.313 99.8083 201.149 100.118C200.99 100.428 200.757 100.676 200.452 100.863C200.151 101.05 199.789 101.144 199.365 101.144C198.941 101.144 198.577 101.05 198.271 100.863C197.966 100.676 197.729 100.428 197.561 100.118C197.396 99.8083 197.314 99.4665 197.314 99.0928ZM198.265 98.5596V99.0928C198.265 99.3024 198.303 99.5029 198.381 99.6943C198.463 99.8812 198.586 100.034 198.75 100.152C198.914 100.266 199.119 100.323 199.365 100.323C199.611 100.323 199.814 100.266 199.974 100.152C200.138 100.034 200.258 99.8812 200.336 99.6943C200.413 99.5075 200.452 99.307 200.452 99.0928V98.5596C200.452 98.3454 200.411 98.1449 200.329 97.958C200.252 97.7712 200.131 97.6208 199.967 97.5068C199.807 97.3883 199.602 97.3291 199.352 97.3291C199.11 97.3291 198.907 97.3883 198.743 97.5068C198.584 97.6208 198.463 97.7712 198.381 97.958C198.303 98.1449 198.265 98.3454 198.265 98.5596ZM199.666 92.4619L194.806 100.241L194.095 99.79L198.955 92.0107L199.666 92.4619Z" fill="#31394D"/>
<g filter="url(#filter3_d_316_298)">
<path fill-rule="evenodd" clip-rule="evenodd" d="M30 137V133H34H38H202C204.209 133 206 134.791 206 137C206 139.209 204.209 141 202 141H38H34H30V137Z" fill="#FEC400"/>
</g>
<path d="M218.427 135.263L217.415 135.003L217.914 130.047H223.021V131.216H218.987L218.687 133.923C218.869 133.818 219.099 133.72 219.377 133.629C219.66 133.538 219.983 133.492 220.348 133.492C220.808 133.492 221.22 133.572 221.585 133.731C221.95 133.886 222.259 134.11 222.515 134.401C222.774 134.693 222.973 135.044 223.109 135.454C223.246 135.864 223.314 136.322 223.314 136.828C223.314 137.307 223.248 137.746 223.116 138.147C222.989 138.549 222.795 138.899 222.535 139.2C222.275 139.496 221.947 139.727 221.551 139.891C221.159 140.055 220.696 140.137 220.163 140.137C219.762 140.137 219.382 140.082 219.021 139.973C218.666 139.859 218.347 139.688 218.064 139.46C217.786 139.228 217.559 138.94 217.381 138.599C217.208 138.252 217.098 137.847 217.053 137.382H218.256C218.311 137.756 218.42 138.07 218.584 138.325C218.748 138.58 218.962 138.774 219.227 138.906C219.495 139.034 219.808 139.098 220.163 139.098C220.464 139.098 220.73 139.045 220.963 138.94C221.195 138.836 221.391 138.685 221.551 138.489C221.71 138.293 221.831 138.056 221.913 137.778C222 137.5 222.043 137.188 222.043 136.842C222.043 136.527 222 136.236 221.913 135.967C221.826 135.698 221.697 135.463 221.523 135.263C221.355 135.062 221.147 134.907 220.901 134.798C220.655 134.684 220.373 134.627 220.054 134.627C219.63 134.627 219.309 134.684 219.09 134.798C218.876 134.912 218.655 135.067 218.427 135.263ZM231.224 138.961V140H224.709V139.091L227.97 135.461C228.371 135.014 228.681 134.636 228.899 134.326C229.123 134.012 229.278 133.731 229.364 133.485C229.455 133.235 229.501 132.979 229.501 132.72C229.501 132.392 229.433 132.095 229.296 131.831C229.164 131.562 228.968 131.348 228.708 131.188C228.448 131.029 228.134 130.949 227.765 130.949C227.323 130.949 226.953 131.036 226.657 131.209C226.366 131.378 226.147 131.615 226.001 131.92C225.855 132.225 225.782 132.576 225.782 132.973H224.518C224.518 132.412 224.641 131.899 224.887 131.435C225.133 130.97 225.497 130.601 225.98 130.327C226.464 130.049 227.058 129.91 227.765 129.91C228.394 129.91 228.931 130.022 229.378 130.245C229.825 130.464 230.166 130.774 230.403 131.175C230.645 131.571 230.766 132.036 230.766 132.569C230.766 132.861 230.715 133.157 230.615 133.458C230.52 133.754 230.385 134.05 230.212 134.347C230.043 134.643 229.845 134.935 229.617 135.222C229.394 135.509 229.155 135.791 228.899 136.069L226.233 138.961H231.224ZM232.468 132.487V131.961C232.468 131.583 232.55 131.239 232.714 130.929C232.878 130.619 233.113 130.37 233.418 130.184C233.723 129.997 234.086 129.903 234.505 129.903C234.933 129.903 235.298 129.997 235.599 130.184C235.904 130.37 236.139 130.619 236.303 130.929C236.467 131.239 236.549 131.583 236.549 131.961V132.487C236.549 132.856 236.467 133.196 236.303 133.506C236.143 133.816 235.911 134.064 235.605 134.251C235.305 134.438 234.942 134.531 234.519 134.531C234.095 134.531 233.728 134.438 233.418 134.251C233.113 134.064 232.878 133.816 232.714 133.506C232.55 133.196 232.468 132.856 232.468 132.487ZM233.418 131.961V132.487C233.418 132.697 233.457 132.895 233.534 133.082C233.616 133.269 233.739 133.422 233.903 133.54C234.067 133.654 234.272 133.711 234.519 133.711C234.765 133.711 234.967 133.654 235.127 133.54C235.286 133.422 235.405 133.269 235.482 133.082C235.56 132.895 235.599 132.697 235.599 132.487V131.961C235.599 131.747 235.558 131.546 235.476 131.359C235.398 131.168 235.277 131.015 235.113 130.901C234.954 130.783 234.751 130.724 234.505 130.724C234.263 130.724 234.061 130.783 233.896 130.901C233.737 131.015 233.616 131.168 233.534 131.359C233.457 131.546 233.418 131.747 233.418 131.961ZM237.314 138.093V137.56C237.314 137.186 237.396 136.844 237.561 136.534C237.725 136.224 237.959 135.976 238.265 135.789C238.57 135.602 238.932 135.509 239.352 135.509C239.78 135.509 240.145 135.602 240.445 135.789C240.751 135.976 240.985 136.224 241.149 136.534C241.313 136.844 241.396 137.186 241.396 137.56V138.093C241.396 138.466 241.313 138.808 241.149 139.118C240.99 139.428 240.757 139.676 240.452 139.863C240.151 140.05 239.789 140.144 239.365 140.144C238.941 140.144 238.577 140.05 238.271 139.863C237.966 139.676 237.729 139.428 237.561 139.118C237.396 138.808 237.314 138.466 237.314 138.093ZM238.265 137.56V138.093C238.265 138.302 238.303 138.503 238.381 138.694C238.463 138.881 238.586 139.034 238.75 139.152C238.914 139.266 239.119 139.323 239.365 139.323C239.611 139.323 239.814 139.266 239.974 139.152C240.138 139.034 240.258 138.881 240.336 138.694C240.413 138.507 240.452 138.307 240.452 138.093V137.56C240.452 137.345 240.411 137.145 240.329 136.958C240.252 136.771 240.131 136.621 239.967 136.507C239.807 136.388 239.602 136.329 239.352 136.329C239.11 136.329 238.907 136.388 238.743 136.507C238.584 136.621 238.463 136.771 238.381 136.958C238.303 137.145 238.265 137.345 238.265 137.56ZM239.666 131.462L234.806 139.241L234.095 138.79L238.955 131.011L239.666 131.462Z" fill="#31394D"/>
<defs>
<filter id="filter0_d_316_298" x="20" y="167" width="276" height="28" filterUnits="userSpaceOnUse" color-interpolation-filters="sRGB">
<feFlood flood-opacity="0" result="BackgroundImageFix"/>
<feColorMatrix in="SourceAlpha" type="matrix" values="0 0 0 0 0 0 0 0 0 0 0 0 0 0 0 0 0 0 127 0" result="hardAlpha"/>
<feOffset dy="5"/>
<feGaussianBlur stdDeviation="5"/>
<feColorMatrix type="matrix" values="0 0 0 0 0 0 0 0 0 0 0 0 0 0 0 0 0 0 0.1 0"/>
<feBlend mode="normal" in2="BackgroundImageFix" result="effect1_dropShadow_316_298"/>
<feBlend mode="normal" in="SourceGraphic" in2="effect1_dropShadow_316_298" result="shape"/>
</filter>
<filter id="filter1_d_316_298" x="20" y="50" width="226" height="28" filterUnits="userSpaceOnUse" color-interpolation-filters="sRGB">
<feFlood flood-opacity="0" result="BackgroundImageFix"/>
<feColorMatrix in="SourceAlpha" type="matrix" values="0 0 0 0 0 0 0 0 0 0 0 0 0 0 0 0 0 0 127 0" result="hardAlpha"/>
<feOffset dy="5"/>
<feGaussianBlur stdDeviation="5"/>
<feColorMatrix type="matrix" values="0 0 0 0 0 0 0 0 0 0 0 0 0 0 0 0 0 0 0.1 0"/>
<feBlend mode="normal" in2="BackgroundImageFix" result="effect1_dropShadow_316_298"/>
<feBlend mode="normal" in="SourceGraphic" in2="effect1_dropShadow_316_298" result="shape"/>
</filter>
<filter id="filter2_d_316_298" x="20" y="89" width="156" height="28" filterUnits="userSpaceOnUse" color-interpolation-filters="sRGB">
<feFlood flood-opacity="0" result="BackgroundImageFix"/>
<feColorMatrix in="SourceAlpha" type="matrix" values="0 0 0 0 0 0 0 0 0 0 0 0 0 0 0 0 0 0 127 0" result="hardAlpha"/>
<feOffset dy="5"/>
<feGaussianBlur stdDeviation="5"/>
<feColorMatrix type="matrix" values="0 0 0 0 0 0 0 0 0 0 0 0 0 0 0 0 0 0 0.1 0"/>
<feBlend mode="normal" in2="BackgroundImageFix" result="effect1_dropShadow_316_298"/>
<feBlend mode="normal" in="SourceGraphic" in2="effect1_dropShadow_316_298" result="shape"/>
</filter>
<filter id="filter3_d_316_298" x="20" y="128" width="196" height="28" filterUnits="userSpaceOnUse" color-interpolation-filters="sRGB">
<feFlood flood-opacity="0" result="BackgroundImageFix"/>
<feColorMatrix in="SourceAlpha" type="matrix" values="0 0 0 0 0 0 0 0 0 0 0 0 0 0 0 0 0 0 127 0" result="hardAlpha"/>
<feOffset dy="5"/>
<feGaussianBlur stdDeviation="5"/>
<feColorMatrix type="matrix" values="0 0 0 0 0 0 0 0 0 0 0 0 0 0 0 0 0 0 0.1 0"/>
<feBlend mode="normal" in2="BackgroundImageFix" result="effect1_dropShadow_316_298"/>
<feBlend mode="normal" in="SourceGraphic" in2="effect1_dropShadow_316_298" result="shape"/>
</filter>
</defs>
</svg>
