<svg width="946" height="252" viewBox="0 0 946 252" fill="none" xmlns="http://www.w3.org/2000/svg">
<path d="M52.0352 238.929L48.7402 248H47.3936L51.1875 238.047H52.0557L52.0352 238.929ZM54.7969 248L51.4951 238.929L51.4746 238.047H52.3428L56.1504 248H54.7969ZM54.626 244.315V245.396H49.0342V244.315H54.626ZM61.7354 246.291V240.604H63.0068V248H61.7969L61.7354 246.291ZM61.9746 244.732L62.501 244.719C62.501 245.211 62.4486 245.667 62.3438 246.086C62.2435 246.501 62.0794 246.861 61.8516 247.166C61.6237 247.471 61.3252 247.711 60.9561 247.884C60.5869 248.052 60.138 248.137 59.6094 248.137C59.2493 248.137 58.9189 248.084 58.6182 247.979C58.3219 247.875 58.0667 247.713 57.8525 247.494C57.6383 247.275 57.472 246.991 57.3535 246.64C57.2396 246.289 57.1826 245.867 57.1826 245.375V240.604H58.4473V245.389C58.4473 245.721 58.4837 245.997 58.5566 246.216C58.6341 246.43 58.7367 246.601 58.8643 246.729C58.9964 246.852 59.1423 246.938 59.3018 246.988C59.4658 247.038 59.6344 247.063 59.8076 247.063C60.3454 247.063 60.7715 246.961 61.0859 246.756C61.4004 246.546 61.626 246.266 61.7627 245.915C61.904 245.56 61.9746 245.165 61.9746 244.732ZM69.7266 240.604H70.875V247.843C70.875 248.494 70.7428 249.05 70.4785 249.511C70.2142 249.971 69.8451 250.32 69.3711 250.557C68.9017 250.798 68.3594 250.919 67.7441 250.919C67.4889 250.919 67.1882 250.878 66.8418 250.796C66.5 250.718 66.1628 250.584 65.8301 250.393C65.502 250.206 65.2262 249.953 65.0029 249.634L65.666 248.882C65.9759 249.256 66.2995 249.515 66.6367 249.661C66.9785 249.807 67.3158 249.88 67.6484 249.88C68.0495 249.88 68.3958 249.805 68.6875 249.654C68.9792 249.504 69.2048 249.281 69.3643 248.984C69.5283 248.693 69.6104 248.333 69.6104 247.904V242.23L69.7266 240.604ZM64.6338 244.384V244.24C64.6338 243.675 64.6999 243.162 64.832 242.702C64.9688 242.237 65.1624 241.839 65.4131 241.506C65.6683 241.173 65.9759 240.918 66.3359 240.74C66.696 240.558 67.1016 240.467 67.5527 240.467C68.0176 240.467 68.4232 240.549 68.7695 240.713C69.1204 240.872 69.4167 241.107 69.6582 241.417C69.9043 241.722 70.098 242.091 70.2393 242.524C70.3805 242.957 70.4785 243.447 70.5332 243.994V244.623C70.4831 245.165 70.3851 245.653 70.2393 246.086C70.098 246.519 69.9043 246.888 69.6582 247.193C69.4167 247.499 69.1204 247.733 68.7695 247.897C68.4186 248.057 68.0085 248.137 67.5391 248.137C67.097 248.137 66.696 248.043 66.3359 247.856C65.9805 247.67 65.6751 247.408 65.4199 247.07C65.1647 246.733 64.9688 246.337 64.832 245.881C64.6999 245.421 64.6338 244.922 64.6338 244.384ZM65.8984 244.24V244.384C65.8984 244.753 65.9349 245.099 66.0078 245.423C66.0853 245.746 66.2015 246.031 66.3564 246.277C66.516 246.523 66.7188 246.717 66.9648 246.858C67.2109 246.995 67.5049 247.063 67.8467 247.063C68.266 247.063 68.6123 246.975 68.8857 246.797C69.1592 246.619 69.3757 246.384 69.5352 246.093C69.6992 245.801 69.8268 245.484 69.918 245.143V243.495C69.8678 243.244 69.7904 243.003 69.6855 242.771C69.5853 242.534 69.4531 242.324 69.2891 242.142C69.1296 241.955 68.9313 241.807 68.6943 241.697C68.4574 241.588 68.1794 241.533 67.8604 241.533C67.514 241.533 67.2155 241.606 66.9648 241.752C66.7188 241.893 66.516 242.089 66.3564 242.34C66.2015 242.586 66.0853 242.873 66.0078 243.201C65.9349 243.525 65.8984 243.871 65.8984 244.24ZM82.6533 246.961V248H76.1387V247.091L79.3994 243.461C79.8005 243.014 80.1104 242.636 80.3291 242.326C80.5524 242.012 80.7074 241.731 80.7939 241.485C80.8851 241.235 80.9307 240.979 80.9307 240.72C80.9307 240.392 80.8623 240.095 80.7256 239.831C80.5934 239.562 80.3975 239.348 80.1377 239.188C79.8779 239.029 79.5635 238.949 79.1943 238.949C78.7523 238.949 78.3831 239.036 78.0869 239.209C77.7952 239.378 77.5765 239.615 77.4307 239.92C77.2848 240.225 77.2119 240.576 77.2119 240.973H75.9473C75.9473 240.412 76.0703 239.899 76.3164 239.435C76.5625 238.97 76.9271 238.601 77.4102 238.327C77.8932 238.049 78.488 237.91 79.1943 237.91C79.8232 237.91 80.361 238.022 80.8076 238.245C81.2542 238.464 81.596 238.774 81.833 239.175C82.0745 239.571 82.1953 240.036 82.1953 240.569C82.1953 240.861 82.1452 241.157 82.0449 241.458C81.9492 241.754 81.8148 242.05 81.6416 242.347C81.473 242.643 81.2747 242.935 81.0469 243.222C80.8236 243.509 80.5843 243.791 80.3291 244.069L77.6631 246.961H82.6533ZM90.2549 242.23V243.748C90.2549 244.564 90.182 245.252 90.0361 245.812C89.8903 246.373 89.6807 246.824 89.4072 247.166C89.1338 247.508 88.8034 247.756 88.416 247.911C88.0332 248.062 87.6003 248.137 87.1172 248.137C86.7344 248.137 86.3812 248.089 86.0576 247.993C85.734 247.897 85.4424 247.745 85.1826 247.535C84.9274 247.321 84.7087 247.043 84.5264 246.701C84.3441 246.359 84.2051 245.945 84.1094 245.457C84.0137 244.969 83.9658 244.4 83.9658 243.748V242.23C83.9658 241.415 84.0387 240.731 84.1846 240.18C84.335 239.628 84.5469 239.186 84.8203 238.854C85.0938 238.516 85.4219 238.275 85.8047 238.129C86.1921 237.983 86.625 237.91 87.1035 237.91C87.4909 237.91 87.8464 237.958 88.1699 238.054C88.498 238.145 88.7897 238.293 89.0449 238.498C89.3001 238.699 89.5166 238.967 89.6943 239.305C89.8766 239.637 90.0156 240.045 90.1113 240.528C90.207 241.011 90.2549 241.579 90.2549 242.23ZM88.9834 243.953V242.019C88.9834 241.572 88.9561 241.18 88.9014 240.843C88.8512 240.501 88.776 240.209 88.6758 239.968C88.5755 239.726 88.4479 239.53 88.293 239.38C88.1426 239.229 87.9671 239.12 87.7666 239.052C87.5706 238.979 87.3496 238.942 87.1035 238.942C86.8027 238.942 86.5361 238.999 86.3037 239.113C86.0713 239.223 85.8753 239.398 85.7158 239.64C85.5609 239.881 85.4424 240.198 85.3604 240.59C85.2783 240.982 85.2373 241.458 85.2373 242.019V243.953C85.2373 244.4 85.2624 244.794 85.3125 245.136C85.3672 245.478 85.4469 245.774 85.5518 246.024C85.6566 246.271 85.7842 246.473 85.9346 246.633C86.085 246.792 86.2581 246.911 86.4541 246.988C86.6546 247.061 86.8757 247.098 87.1172 247.098C87.4271 247.098 87.6982 247.038 87.9307 246.92C88.1631 246.801 88.3568 246.617 88.5117 246.366C88.6712 246.111 88.7897 245.785 88.8672 245.389C88.9447 244.988 88.9834 244.509 88.9834 243.953ZM96.0381 237.992V248H94.7734V239.571L92.2236 240.501V239.359L95.8398 237.992H96.0381ZM106.032 245.307C106.032 245.913 105.891 246.428 105.608 246.852C105.33 247.271 104.952 247.59 104.474 247.809C104 248.027 103.464 248.137 102.867 248.137C102.27 248.137 101.732 248.027 101.254 247.809C100.775 247.59 100.397 247.271 100.119 246.852C99.8411 246.428 99.7021 245.913 99.7021 245.307C99.7021 244.91 99.7773 244.548 99.9277 244.22C100.083 243.887 100.299 243.598 100.577 243.352C100.86 243.105 101.192 242.916 101.575 242.784C101.963 242.647 102.389 242.579 102.854 242.579C103.464 242.579 104.009 242.698 104.487 242.935C104.966 243.167 105.342 243.488 105.615 243.898C105.893 244.309 106.032 244.778 106.032 245.307ZM104.761 245.279C104.761 244.91 104.681 244.584 104.521 244.302C104.362 244.015 104.139 243.791 103.852 243.632C103.564 243.472 103.232 243.393 102.854 243.393C102.466 243.393 102.131 243.472 101.849 243.632C101.571 243.791 101.354 244.015 101.199 244.302C101.044 244.584 100.967 244.91 100.967 245.279C100.967 245.662 101.042 245.99 101.192 246.264C101.347 246.533 101.566 246.74 101.849 246.886C102.136 247.027 102.475 247.098 102.867 247.098C103.259 247.098 103.596 247.027 103.879 246.886C104.161 246.74 104.378 246.533 104.528 246.264C104.683 245.99 104.761 245.662 104.761 245.279ZM105.8 240.638C105.8 241.121 105.672 241.556 105.417 241.943C105.162 242.331 104.813 242.636 104.371 242.859C103.929 243.083 103.428 243.194 102.867 243.194C102.298 243.194 101.789 243.083 101.343 242.859C100.901 242.636 100.554 242.331 100.304 241.943C100.053 241.556 99.9277 241.121 99.9277 240.638C99.9277 240.059 100.053 239.567 100.304 239.161C100.559 238.756 100.908 238.446 101.35 238.231C101.792 238.017 102.295 237.91 102.86 237.91C103.43 237.91 103.936 238.017 104.378 238.231C104.82 238.446 105.166 238.756 105.417 239.161C105.672 239.567 105.8 240.059 105.8 240.638ZM104.535 240.658C104.535 240.326 104.465 240.032 104.323 239.776C104.182 239.521 103.986 239.321 103.735 239.175C103.485 239.024 103.193 238.949 102.86 238.949C102.528 238.949 102.236 239.02 101.985 239.161C101.739 239.298 101.546 239.494 101.404 239.749C101.268 240.004 101.199 240.307 101.199 240.658C101.199 241 101.268 241.299 101.404 241.554C101.546 241.809 101.742 242.007 101.992 242.148C102.243 242.29 102.535 242.36 102.867 242.36C103.2 242.36 103.489 242.29 103.735 242.148C103.986 242.007 104.182 241.809 104.323 241.554C104.465 241.299 104.535 241 104.535 240.658Z" fill="#748AA1"/>
<path d="M142.175 245.484C142.175 245.252 142.138 245.047 142.065 244.869C141.997 244.687 141.874 244.523 141.696 244.377C141.523 244.231 141.282 244.092 140.972 243.96C140.666 243.828 140.279 243.693 139.81 243.557C139.317 243.411 138.873 243.249 138.477 243.071C138.08 242.889 137.741 242.682 137.458 242.449C137.175 242.217 136.959 241.95 136.809 241.649C136.658 241.349 136.583 241.005 136.583 240.617C136.583 240.23 136.663 239.872 136.822 239.544C136.982 239.216 137.21 238.931 137.506 238.689C137.807 238.443 138.164 238.252 138.579 238.115C138.994 237.979 139.456 237.91 139.967 237.91C140.714 237.91 141.348 238.054 141.867 238.341C142.391 238.623 142.79 238.995 143.063 239.455C143.337 239.911 143.474 240.398 143.474 240.918H142.161C142.161 240.544 142.081 240.214 141.922 239.927C141.762 239.635 141.521 239.407 141.197 239.243C140.874 239.075 140.464 238.99 139.967 238.99C139.497 238.99 139.11 239.061 138.805 239.202C138.499 239.343 138.271 239.535 138.121 239.776C137.975 240.018 137.902 240.294 137.902 240.604C137.902 240.813 137.946 241.005 138.032 241.178C138.123 241.346 138.262 241.504 138.449 241.649C138.641 241.795 138.882 241.93 139.174 242.053C139.47 242.176 139.823 242.294 140.233 242.408C140.799 242.568 141.286 242.745 141.696 242.941C142.106 243.137 142.444 243.358 142.708 243.604C142.977 243.846 143.175 244.122 143.303 244.432C143.435 244.737 143.501 245.083 143.501 245.471C143.501 245.876 143.419 246.243 143.255 246.571C143.091 246.899 142.856 247.18 142.551 247.412C142.245 247.645 141.879 247.825 141.45 247.952C141.026 248.075 140.552 248.137 140.028 248.137C139.568 248.137 139.115 248.073 138.668 247.945C138.226 247.818 137.823 247.626 137.458 247.371C137.098 247.116 136.809 246.801 136.59 246.428C136.376 246.049 136.269 245.612 136.269 245.115H137.581C137.581 245.457 137.647 245.751 137.779 245.997C137.911 246.239 138.091 246.439 138.319 246.599C138.552 246.758 138.814 246.877 139.105 246.954C139.402 247.027 139.709 247.063 140.028 247.063C140.489 247.063 140.878 247 141.197 246.872C141.516 246.744 141.758 246.562 141.922 246.325C142.09 246.088 142.175 245.808 142.175 245.484ZM148.061 248.137C147.546 248.137 147.078 248.05 146.659 247.877C146.244 247.699 145.887 247.451 145.586 247.132C145.29 246.813 145.062 246.435 144.902 245.997C144.743 245.56 144.663 245.081 144.663 244.562V244.274C144.663 243.673 144.752 243.137 144.93 242.668C145.107 242.194 145.349 241.793 145.654 241.465C145.96 241.137 146.306 240.888 146.693 240.72C147.081 240.551 147.482 240.467 147.896 240.467C148.425 240.467 148.881 240.558 149.264 240.74C149.651 240.923 149.968 241.178 150.214 241.506C150.46 241.829 150.642 242.212 150.761 242.654C150.879 243.092 150.938 243.57 150.938 244.09V244.657H145.415V243.625H149.674V243.529C149.656 243.201 149.587 242.882 149.469 242.572C149.355 242.262 149.173 242.007 148.922 241.807C148.671 241.606 148.329 241.506 147.896 241.506C147.609 241.506 147.345 241.567 147.104 241.69C146.862 241.809 146.655 241.987 146.481 242.224C146.308 242.461 146.174 242.75 146.078 243.092C145.982 243.434 145.935 243.828 145.935 244.274V244.562C145.935 244.912 145.982 245.243 146.078 245.553C146.178 245.858 146.322 246.127 146.509 246.359C146.7 246.592 146.93 246.774 147.199 246.906C147.473 247.038 147.783 247.104 148.129 247.104C148.576 247.104 148.954 247.013 149.264 246.831C149.574 246.649 149.845 246.405 150.077 246.1L150.843 246.708C150.683 246.95 150.48 247.18 150.234 247.398C149.988 247.617 149.685 247.795 149.325 247.932C148.97 248.068 148.548 248.137 148.061 248.137ZM153.68 242.025V250.844H152.408V240.604H153.57L153.68 242.025ZM158.663 244.24V244.384C158.663 244.922 158.599 245.421 158.472 245.881C158.344 246.337 158.157 246.733 157.911 247.07C157.67 247.408 157.371 247.67 157.016 247.856C156.66 248.043 156.252 248.137 155.792 248.137C155.323 248.137 154.908 248.059 154.548 247.904C154.188 247.749 153.882 247.524 153.632 247.228C153.381 246.931 153.181 246.576 153.03 246.161C152.884 245.746 152.784 245.279 152.729 244.76V243.994C152.784 243.447 152.887 242.957 153.037 242.524C153.188 242.091 153.386 241.722 153.632 241.417C153.882 241.107 154.186 240.872 154.541 240.713C154.896 240.549 155.307 240.467 155.771 240.467C156.236 240.467 156.649 240.558 157.009 240.74C157.369 240.918 157.672 241.173 157.918 241.506C158.164 241.839 158.349 242.237 158.472 242.702C158.599 243.162 158.663 243.675 158.663 244.24ZM157.392 244.384V244.24C157.392 243.871 157.353 243.525 157.275 243.201C157.198 242.873 157.077 242.586 156.913 242.34C156.754 242.089 156.549 241.893 156.298 241.752C156.047 241.606 155.749 241.533 155.402 241.533C155.083 241.533 154.805 241.588 154.568 241.697C154.336 241.807 154.138 241.955 153.974 242.142C153.81 242.324 153.675 242.534 153.57 242.771C153.47 243.003 153.395 243.244 153.345 243.495V245.266C153.436 245.585 153.563 245.885 153.728 246.168C153.892 246.446 154.11 246.672 154.384 246.845C154.657 247.013 155.001 247.098 155.416 247.098C155.758 247.098 156.052 247.027 156.298 246.886C156.549 246.74 156.754 246.542 156.913 246.291C157.077 246.04 157.198 245.753 157.275 245.43C157.353 245.102 157.392 244.753 157.392 244.384ZM170.134 246.961V248H163.619V247.091L166.88 243.461C167.281 243.014 167.591 242.636 167.81 242.326C168.033 242.012 168.188 241.731 168.274 241.485C168.366 241.235 168.411 240.979 168.411 240.72C168.411 240.392 168.343 240.095 168.206 239.831C168.074 239.562 167.878 239.348 167.618 239.188C167.358 239.029 167.044 238.949 166.675 238.949C166.233 238.949 165.864 239.036 165.567 239.209C165.276 239.378 165.057 239.615 164.911 239.92C164.765 240.225 164.692 240.576 164.692 240.973H163.428C163.428 240.412 163.551 239.899 163.797 239.435C164.043 238.97 164.408 238.601 164.891 238.327C165.374 238.049 165.968 237.91 166.675 237.91C167.304 237.91 167.841 238.022 168.288 238.245C168.735 238.464 169.076 238.774 169.313 239.175C169.555 239.571 169.676 240.036 169.676 240.569C169.676 240.861 169.626 241.157 169.525 241.458C169.43 241.754 169.295 242.05 169.122 242.347C168.953 242.643 168.755 242.935 168.527 243.222C168.304 243.509 168.065 243.791 167.81 244.069L165.144 246.961H170.134ZM177.735 242.23V243.748C177.735 244.564 177.662 245.252 177.517 245.812C177.371 246.373 177.161 246.824 176.888 247.166C176.614 247.508 176.284 247.756 175.896 247.911C175.514 248.062 175.081 248.137 174.598 248.137C174.215 248.137 173.862 248.089 173.538 247.993C173.215 247.897 172.923 247.745 172.663 247.535C172.408 247.321 172.189 247.043 172.007 246.701C171.825 246.359 171.686 245.945 171.59 245.457C171.494 244.969 171.446 244.4 171.446 243.748V242.23C171.446 241.415 171.519 240.731 171.665 240.18C171.815 239.628 172.027 239.186 172.301 238.854C172.574 238.516 172.902 238.275 173.285 238.129C173.673 237.983 174.105 237.91 174.584 237.91C174.971 237.91 175.327 237.958 175.65 238.054C175.979 238.145 176.27 238.293 176.525 238.498C176.781 238.699 176.997 238.967 177.175 239.305C177.357 239.637 177.496 240.045 177.592 240.528C177.688 241.011 177.735 241.579 177.735 242.23ZM176.464 243.953V242.019C176.464 241.572 176.437 241.18 176.382 240.843C176.332 240.501 176.257 240.209 176.156 239.968C176.056 239.726 175.928 239.53 175.773 239.38C175.623 239.229 175.448 239.12 175.247 239.052C175.051 238.979 174.83 238.942 174.584 238.942C174.283 238.942 174.017 238.999 173.784 239.113C173.552 239.223 173.356 239.398 173.196 239.64C173.041 239.881 172.923 240.198 172.841 240.59C172.759 240.982 172.718 241.458 172.718 242.019V243.953C172.718 244.4 172.743 244.794 172.793 245.136C172.848 245.478 172.927 245.774 173.032 246.024C173.137 246.271 173.265 246.473 173.415 246.633C173.565 246.792 173.739 246.911 173.935 246.988C174.135 247.061 174.356 247.098 174.598 247.098C174.908 247.098 175.179 247.038 175.411 246.92C175.644 246.801 175.837 246.617 175.992 246.366C176.152 246.111 176.27 245.785 176.348 245.389C176.425 244.988 176.464 244.509 176.464 243.953ZM183.519 237.992V248H182.254V239.571L179.704 240.501V239.359L183.32 237.992H183.519ZM193.513 245.307C193.513 245.913 193.371 246.428 193.089 246.852C192.811 247.271 192.433 247.59 191.954 247.809C191.48 248.027 190.945 248.137 190.348 248.137C189.751 248.137 189.213 248.027 188.734 247.809C188.256 247.59 187.878 247.271 187.6 246.852C187.322 246.428 187.183 245.913 187.183 245.307C187.183 244.91 187.258 244.548 187.408 244.22C187.563 243.887 187.78 243.598 188.058 243.352C188.34 243.105 188.673 242.916 189.056 242.784C189.443 242.647 189.869 242.579 190.334 242.579C190.945 242.579 191.489 242.698 191.968 242.935C192.446 243.167 192.822 243.488 193.096 243.898C193.374 244.309 193.513 244.778 193.513 245.307ZM192.241 245.279C192.241 244.91 192.161 244.584 192.002 244.302C191.842 244.015 191.619 243.791 191.332 243.632C191.045 243.472 190.712 243.393 190.334 243.393C189.947 243.393 189.612 243.472 189.329 243.632C189.051 243.791 188.835 244.015 188.68 244.302C188.525 244.584 188.447 244.91 188.447 245.279C188.447 245.662 188.522 245.99 188.673 246.264C188.828 246.533 189.047 246.74 189.329 246.886C189.616 247.027 189.956 247.098 190.348 247.098C190.74 247.098 191.077 247.027 191.359 246.886C191.642 246.74 191.858 246.533 192.009 246.264C192.164 245.99 192.241 245.662 192.241 245.279ZM193.28 240.638C193.28 241.121 193.153 241.556 192.897 241.943C192.642 242.331 192.294 242.636 191.852 242.859C191.41 243.083 190.908 243.194 190.348 243.194C189.778 243.194 189.27 243.083 188.823 242.859C188.381 242.636 188.035 242.331 187.784 241.943C187.534 241.556 187.408 241.121 187.408 240.638C187.408 240.059 187.534 239.567 187.784 239.161C188.039 238.756 188.388 238.446 188.83 238.231C189.272 238.017 189.776 237.91 190.341 237.91C190.91 237.91 191.416 238.017 191.858 238.231C192.3 238.446 192.647 238.756 192.897 239.161C193.153 239.567 193.28 240.059 193.28 240.638ZM192.016 240.658C192.016 240.326 191.945 240.032 191.804 239.776C191.662 239.521 191.466 239.321 191.216 239.175C190.965 239.024 190.674 238.949 190.341 238.949C190.008 238.949 189.716 239.02 189.466 239.161C189.22 239.298 189.026 239.494 188.885 239.749C188.748 240.004 188.68 240.307 188.68 240.658C188.68 241 188.748 241.299 188.885 241.554C189.026 241.809 189.222 242.007 189.473 242.148C189.723 242.29 190.015 242.36 190.348 242.36C190.68 242.36 190.97 242.29 191.216 242.148C191.466 242.007 191.662 241.809 191.804 241.554C191.945 241.299 192.016 241 192.016 240.658Z" fill="#748AA1"/>
<path d="M233.559 242.709V243.338C233.559 244.085 233.465 244.755 233.278 245.348C233.091 245.94 232.823 246.444 232.472 246.858C232.121 247.273 231.699 247.59 231.207 247.809C230.719 248.027 230.173 248.137 229.566 248.137C228.979 248.137 228.438 248.027 227.946 247.809C227.459 247.59 227.035 247.273 226.675 246.858C226.319 246.444 226.044 245.94 225.848 245.348C225.652 244.755 225.554 244.085 225.554 243.338V242.709C225.554 241.962 225.649 241.294 225.841 240.706C226.037 240.114 226.312 239.61 226.668 239.195C227.023 238.776 227.445 238.457 227.933 238.238C228.425 238.02 228.965 237.91 229.553 237.91C230.159 237.91 230.706 238.02 231.193 238.238C231.686 238.457 232.107 238.776 232.458 239.195C232.813 239.61 233.085 240.114 233.271 240.706C233.463 241.294 233.559 241.962 233.559 242.709ZM232.253 243.338V242.695C232.253 242.103 232.191 241.579 232.068 241.123C231.95 240.667 231.774 240.285 231.542 239.975C231.31 239.665 231.025 239.43 230.688 239.271C230.355 239.111 229.977 239.031 229.553 239.031C229.143 239.031 228.771 239.111 228.438 239.271C228.11 239.43 227.828 239.665 227.591 239.975C227.358 240.285 227.178 240.667 227.051 241.123C226.923 241.579 226.859 242.103 226.859 242.695V243.338C226.859 243.935 226.923 244.464 227.051 244.924C227.178 245.38 227.361 245.765 227.598 246.079C227.839 246.389 228.124 246.624 228.452 246.783C228.785 246.943 229.156 247.022 229.566 247.022C229.995 247.022 230.375 246.943 230.708 246.783C231.041 246.624 231.321 246.389 231.549 246.079C231.781 245.765 231.957 245.38 232.075 244.924C232.194 244.464 232.253 243.935 232.253 243.338ZM238.303 247.098C238.604 247.098 238.882 247.036 239.137 246.913C239.392 246.79 239.602 246.621 239.766 246.407C239.93 246.188 240.023 245.94 240.046 245.662H241.249C241.226 246.1 241.078 246.507 240.805 246.886C240.536 247.259 240.183 247.562 239.745 247.795C239.308 248.023 238.827 248.137 238.303 248.137C237.747 248.137 237.261 248.039 236.847 247.843C236.437 247.647 236.095 247.378 235.821 247.036C235.552 246.694 235.35 246.302 235.213 245.86C235.081 245.414 235.015 244.942 235.015 244.445V244.158C235.015 243.661 235.081 243.192 235.213 242.75C235.35 242.303 235.552 241.909 235.821 241.567C236.095 241.226 236.437 240.957 236.847 240.761C237.261 240.565 237.747 240.467 238.303 240.467C238.882 240.467 239.387 240.585 239.82 240.822C240.253 241.055 240.593 241.374 240.839 241.779C241.09 242.18 241.226 242.636 241.249 243.146H240.046C240.023 242.841 239.937 242.565 239.786 242.319C239.64 242.073 239.44 241.877 239.185 241.731C238.934 241.581 238.64 241.506 238.303 241.506C237.915 241.506 237.59 241.583 237.325 241.738C237.065 241.889 236.858 242.094 236.703 242.354C236.553 242.609 236.443 242.894 236.375 243.208C236.311 243.518 236.279 243.835 236.279 244.158V244.445C236.279 244.769 236.311 245.088 236.375 245.402C236.439 245.717 236.546 246.002 236.696 246.257C236.851 246.512 237.059 246.717 237.318 246.872C237.583 247.022 237.911 247.098 238.303 247.098ZM245.768 240.604V241.574H241.769V240.604H245.768ZM243.122 238.806H244.387V246.168C244.387 246.419 244.425 246.608 244.503 246.735C244.58 246.863 244.681 246.947 244.804 246.988C244.927 247.029 245.059 247.05 245.2 247.05C245.305 247.05 245.414 247.041 245.528 247.022C245.647 247 245.736 246.981 245.795 246.968L245.802 248C245.701 248.032 245.569 248.062 245.405 248.089C245.246 248.121 245.052 248.137 244.824 248.137C244.514 248.137 244.229 248.075 243.97 247.952C243.71 247.829 243.503 247.624 243.348 247.337C243.197 247.045 243.122 246.653 243.122 246.161V238.806ZM257.108 246.961V248H250.594V247.091L253.854 243.461C254.256 243.014 254.565 242.636 254.784 242.326C255.007 242.012 255.162 241.731 255.249 241.485C255.34 241.235 255.386 240.979 255.386 240.72C255.386 240.392 255.317 240.095 255.181 239.831C255.049 239.562 254.853 239.348 254.593 239.188C254.333 239.029 254.019 238.949 253.649 238.949C253.207 238.949 252.838 239.036 252.542 239.209C252.25 239.378 252.032 239.615 251.886 239.92C251.74 240.225 251.667 240.576 251.667 240.973H250.402C250.402 240.412 250.525 239.899 250.771 239.435C251.018 238.97 251.382 238.601 251.865 238.327C252.348 238.049 252.943 237.91 253.649 237.91C254.278 237.91 254.816 238.022 255.263 238.245C255.709 238.464 256.051 238.774 256.288 239.175C256.53 239.571 256.65 240.036 256.65 240.569C256.65 240.861 256.6 241.157 256.5 241.458C256.404 241.754 256.27 242.05 256.097 242.347C255.928 242.643 255.73 242.935 255.502 243.222C255.279 243.509 255.039 243.791 254.784 244.069L252.118 246.961H257.108ZM264.71 242.23V243.748C264.71 244.564 264.637 245.252 264.491 245.812C264.345 246.373 264.136 246.824 263.862 247.166C263.589 247.508 263.258 247.756 262.871 247.911C262.488 248.062 262.055 248.137 261.572 248.137C261.189 248.137 260.836 248.089 260.513 247.993C260.189 247.897 259.897 247.745 259.638 247.535C259.382 247.321 259.164 247.043 258.981 246.701C258.799 246.359 258.66 245.945 258.564 245.457C258.469 244.969 258.421 244.4 258.421 243.748V242.23C258.421 241.415 258.494 240.731 258.64 240.18C258.79 239.628 259.002 239.186 259.275 238.854C259.549 238.516 259.877 238.275 260.26 238.129C260.647 237.983 261.08 237.91 261.559 237.91C261.946 237.91 262.301 237.958 262.625 238.054C262.953 238.145 263.245 238.293 263.5 238.498C263.755 238.699 263.972 238.967 264.149 239.305C264.332 239.637 264.471 240.045 264.566 240.528C264.662 241.011 264.71 241.579 264.71 242.23ZM263.438 243.953V242.019C263.438 241.572 263.411 241.18 263.356 240.843C263.306 240.501 263.231 240.209 263.131 239.968C263.031 239.726 262.903 239.53 262.748 239.38C262.598 239.229 262.422 239.12 262.222 239.052C262.026 238.979 261.805 238.942 261.559 238.942C261.258 238.942 260.991 238.999 260.759 239.113C260.526 239.223 260.33 239.398 260.171 239.64C260.016 239.881 259.897 240.198 259.815 240.59C259.733 240.982 259.692 241.458 259.692 242.019V243.953C259.692 244.4 259.717 244.794 259.768 245.136C259.822 245.478 259.902 245.774 260.007 246.024C260.112 246.271 260.239 246.473 260.39 246.633C260.54 246.792 260.713 246.911 260.909 246.988C261.11 247.061 261.331 247.098 261.572 247.098C261.882 247.098 262.153 247.038 262.386 246.92C262.618 246.801 262.812 246.617 262.967 246.366C263.126 246.111 263.245 245.785 263.322 245.389C263.4 244.988 263.438 244.509 263.438 243.953ZM270.493 237.992V248H269.229V239.571L266.679 240.501V239.359L270.295 237.992H270.493ZM280.487 245.307C280.487 245.913 280.346 246.428 280.063 246.852C279.785 247.271 279.407 247.59 278.929 247.809C278.455 248.027 277.919 248.137 277.322 248.137C276.725 248.137 276.188 248.027 275.709 247.809C275.23 247.59 274.852 247.271 274.574 246.852C274.296 246.428 274.157 245.913 274.157 245.307C274.157 244.91 274.232 244.548 274.383 244.22C274.538 243.887 274.754 243.598 275.032 243.352C275.315 243.105 275.647 242.916 276.03 242.784C276.418 242.647 276.844 242.579 277.309 242.579C277.919 242.579 278.464 242.698 278.942 242.935C279.421 243.167 279.797 243.488 280.07 243.898C280.348 244.309 280.487 244.778 280.487 245.307ZM279.216 245.279C279.216 244.91 279.136 244.584 278.977 244.302C278.817 244.015 278.594 243.791 278.307 243.632C278.02 243.472 277.687 243.393 277.309 243.393C276.921 243.393 276.586 243.472 276.304 243.632C276.026 243.791 275.809 244.015 275.654 244.302C275.499 244.584 275.422 244.91 275.422 245.279C275.422 245.662 275.497 245.99 275.647 246.264C275.802 246.533 276.021 246.74 276.304 246.886C276.591 247.027 276.93 247.098 277.322 247.098C277.714 247.098 278.051 247.027 278.334 246.886C278.617 246.74 278.833 246.533 278.983 246.264C279.138 245.99 279.216 245.662 279.216 245.279ZM280.255 240.638C280.255 241.121 280.127 241.556 279.872 241.943C279.617 242.331 279.268 242.636 278.826 242.859C278.384 243.083 277.883 243.194 277.322 243.194C276.753 243.194 276.244 243.083 275.798 242.859C275.356 242.636 275.009 242.331 274.759 241.943C274.508 241.556 274.383 241.121 274.383 240.638C274.383 240.059 274.508 239.567 274.759 239.161C275.014 238.756 275.363 238.446 275.805 238.231C276.247 238.017 276.75 237.91 277.315 237.91C277.885 237.91 278.391 238.017 278.833 238.231C279.275 238.446 279.621 238.756 279.872 239.161C280.127 239.567 280.255 240.059 280.255 240.638ZM278.99 240.658C278.99 240.326 278.92 240.032 278.778 239.776C278.637 239.521 278.441 239.321 278.19 239.175C277.94 239.024 277.648 238.949 277.315 238.949C276.983 238.949 276.691 239.02 276.44 239.161C276.194 239.298 276.001 239.494 275.859 239.749C275.723 240.004 275.654 240.307 275.654 240.658C275.654 241 275.723 241.299 275.859 241.554C276.001 241.809 276.197 242.007 276.447 242.148C276.698 242.29 276.99 242.36 277.322 242.36C277.655 242.36 277.944 242.29 278.19 242.148C278.441 242.007 278.637 241.809 278.778 241.554C278.92 241.299 278.99 241 278.99 240.658Z" fill="#748AA1"/>
<path d="M320 238.047V248H318.674L313.663 240.323V248H312.344V238.047H313.663L318.694 245.744V238.047H320ZM321.812 244.384V244.227C321.812 243.693 321.889 243.199 322.044 242.743C322.199 242.283 322.422 241.884 322.714 241.547C323.006 241.205 323.359 240.941 323.773 240.754C324.188 240.562 324.653 240.467 325.168 240.467C325.688 240.467 326.155 240.562 326.569 240.754C326.989 240.941 327.344 241.205 327.636 241.547C327.932 241.884 328.158 242.283 328.312 242.743C328.467 243.199 328.545 243.693 328.545 244.227V244.384C328.545 244.917 328.467 245.411 328.312 245.867C328.158 246.323 327.932 246.722 327.636 247.063C327.344 247.401 326.991 247.665 326.576 247.856C326.166 248.043 325.701 248.137 325.182 248.137C324.662 248.137 324.195 248.043 323.78 247.856C323.366 247.665 323.01 247.401 322.714 247.063C322.422 246.722 322.199 246.323 322.044 245.867C321.889 245.411 321.812 244.917 321.812 244.384ZM323.076 244.227V244.384C323.076 244.753 323.119 245.102 323.206 245.43C323.293 245.753 323.423 246.04 323.596 246.291C323.773 246.542 323.994 246.74 324.259 246.886C324.523 247.027 324.831 247.098 325.182 247.098C325.528 247.098 325.831 247.027 326.091 246.886C326.355 246.74 326.574 246.542 326.747 246.291C326.92 246.04 327.05 245.753 327.137 245.43C327.228 245.102 327.273 244.753 327.273 244.384V244.227C327.273 243.862 327.228 243.518 327.137 243.194C327.05 242.866 326.918 242.577 326.74 242.326C326.567 242.071 326.348 241.87 326.084 241.725C325.824 241.579 325.519 241.506 325.168 241.506C324.822 241.506 324.516 241.579 324.252 241.725C323.992 241.87 323.773 242.071 323.596 242.326C323.423 242.577 323.293 242.866 323.206 243.194C323.119 243.518 323.076 243.862 323.076 244.227ZM332.271 246.858L334.294 240.604H335.586L332.927 248H332.079L332.271 246.858ZM330.582 240.604L332.667 246.893L332.811 248H331.963L329.283 240.604H330.582ZM346.66 246.961V248H340.146V247.091L343.406 243.461C343.807 243.014 344.117 242.636 344.336 242.326C344.559 242.012 344.714 241.731 344.801 241.485C344.892 241.235 344.938 240.979 344.938 240.72C344.938 240.392 344.869 240.095 344.732 239.831C344.6 239.562 344.404 239.348 344.145 239.188C343.885 239.029 343.57 238.949 343.201 238.949C342.759 238.949 342.39 239.036 342.094 239.209C341.802 239.378 341.583 239.615 341.438 239.92C341.292 240.225 341.219 240.576 341.219 240.973H339.954C339.954 240.412 340.077 239.899 340.323 239.435C340.569 238.97 340.934 238.601 341.417 238.327C341.9 238.049 342.495 237.91 343.201 237.91C343.83 237.91 344.368 238.022 344.814 238.245C345.261 238.464 345.603 238.774 345.84 239.175C346.081 239.571 346.202 240.036 346.202 240.569C346.202 240.861 346.152 241.157 346.052 241.458C345.956 241.754 345.822 242.05 345.648 242.347C345.48 242.643 345.282 242.935 345.054 243.222C344.83 243.509 344.591 243.791 344.336 244.069L341.67 246.961H346.66ZM354.262 242.23V243.748C354.262 244.564 354.189 245.252 354.043 245.812C353.897 246.373 353.688 246.824 353.414 247.166C353.141 247.508 352.81 247.756 352.423 247.911C352.04 248.062 351.607 248.137 351.124 248.137C350.741 248.137 350.388 248.089 350.064 247.993C349.741 247.897 349.449 247.745 349.189 247.535C348.934 247.321 348.715 247.043 348.533 246.701C348.351 246.359 348.212 245.945 348.116 245.457C348.021 244.969 347.973 244.4 347.973 243.748V242.23C347.973 241.415 348.046 240.731 348.191 240.18C348.342 239.628 348.554 239.186 348.827 238.854C349.101 238.516 349.429 238.275 349.812 238.129C350.199 237.983 350.632 237.91 351.11 237.91C351.498 237.91 351.853 237.958 352.177 238.054C352.505 238.145 352.797 238.293 353.052 238.498C353.307 238.699 353.523 238.967 353.701 239.305C353.883 239.637 354.022 240.045 354.118 240.528C354.214 241.011 354.262 241.579 354.262 242.23ZM352.99 243.953V242.019C352.99 241.572 352.963 241.18 352.908 240.843C352.858 240.501 352.783 240.209 352.683 239.968C352.582 239.726 352.455 239.53 352.3 239.38C352.149 239.229 351.974 239.12 351.773 239.052C351.577 238.979 351.356 238.942 351.11 238.942C350.81 238.942 350.543 238.999 350.311 239.113C350.078 239.223 349.882 239.398 349.723 239.64C349.568 239.881 349.449 240.198 349.367 240.59C349.285 240.982 349.244 241.458 349.244 242.019V243.953C349.244 244.4 349.269 244.794 349.319 245.136C349.374 245.478 349.454 245.774 349.559 246.024C349.663 246.271 349.791 246.473 349.941 246.633C350.092 246.792 350.265 246.911 350.461 246.988C350.661 247.061 350.882 247.098 351.124 247.098C351.434 247.098 351.705 247.038 351.938 246.92C352.17 246.801 352.364 246.617 352.519 246.366C352.678 246.111 352.797 245.785 352.874 245.389C352.951 244.988 352.99 244.509 352.99 243.953ZM360.045 237.992V248H358.78V239.571L356.23 240.501V239.359L359.847 237.992H360.045ZM370.039 245.307C370.039 245.913 369.898 246.428 369.615 246.852C369.337 247.271 368.959 247.59 368.48 247.809C368.007 248.027 367.471 248.137 366.874 248.137C366.277 248.137 365.739 248.027 365.261 247.809C364.782 247.59 364.404 247.271 364.126 246.852C363.848 246.428 363.709 245.913 363.709 245.307C363.709 244.91 363.784 244.548 363.935 244.22C364.09 243.887 364.306 243.598 364.584 243.352C364.867 243.105 365.199 242.916 365.582 242.784C365.969 242.647 366.396 242.579 366.86 242.579C367.471 242.579 368.016 242.698 368.494 242.935C368.973 243.167 369.349 243.488 369.622 243.898C369.9 244.309 370.039 244.778 370.039 245.307ZM368.768 245.279C368.768 244.91 368.688 244.584 368.528 244.302C368.369 244.015 368.146 243.791 367.858 243.632C367.571 243.472 367.239 243.393 366.86 243.393C366.473 243.393 366.138 243.472 365.855 243.632C365.577 243.791 365.361 244.015 365.206 244.302C365.051 244.584 364.974 244.91 364.974 245.279C364.974 245.662 365.049 245.99 365.199 246.264C365.354 246.533 365.573 246.74 365.855 246.886C366.143 247.027 366.482 247.098 366.874 247.098C367.266 247.098 367.603 247.027 367.886 246.886C368.168 246.74 368.385 246.533 368.535 246.264C368.69 245.99 368.768 245.662 368.768 245.279ZM369.807 240.638C369.807 241.121 369.679 241.556 369.424 241.943C369.169 242.331 368.82 242.636 368.378 242.859C367.936 243.083 367.435 243.194 366.874 243.194C366.304 243.194 365.796 243.083 365.35 242.859C364.908 242.636 364.561 242.331 364.311 241.943C364.06 241.556 363.935 241.121 363.935 240.638C363.935 240.059 364.06 239.567 364.311 239.161C364.566 238.756 364.914 238.446 365.356 238.231C365.799 238.017 366.302 237.91 366.867 237.91C367.437 237.91 367.943 238.017 368.385 238.231C368.827 238.446 369.173 238.756 369.424 239.161C369.679 239.567 369.807 240.059 369.807 240.638ZM368.542 240.658C368.542 240.326 368.471 240.032 368.33 239.776C368.189 239.521 367.993 239.321 367.742 239.175C367.492 239.024 367.2 238.949 366.867 238.949C366.535 238.949 366.243 239.02 365.992 239.161C365.746 239.298 365.552 239.494 365.411 239.749C365.274 240.004 365.206 240.307 365.206 240.658C365.206 241 365.274 241.299 365.411 241.554C365.552 241.809 365.748 242.007 365.999 242.148C366.25 242.29 366.541 242.36 366.874 242.36C367.207 242.36 367.496 242.29 367.742 242.148C367.993 242.007 368.189 241.809 368.33 241.554C368.471 241.299 368.542 241 368.542 240.658Z" fill="#748AA1"/>
<path d="M403.393 248H401.314L401.328 246.927H403.393C404.104 246.927 404.696 246.779 405.17 246.482C405.644 246.182 405.999 245.762 406.236 245.225C406.478 244.682 406.599 244.049 406.599 243.324V242.716C406.599 242.146 406.53 241.64 406.394 241.198C406.257 240.752 406.056 240.376 405.792 240.07C405.528 239.76 405.204 239.526 404.821 239.366C404.443 239.207 404.008 239.127 403.516 239.127H401.273V238.047H403.516C404.167 238.047 404.762 238.156 405.3 238.375C405.838 238.589 406.3 238.901 406.688 239.312C407.079 239.717 407.38 240.209 407.59 240.788C407.799 241.362 407.904 242.009 407.904 242.729V243.324C407.904 244.044 407.799 244.694 407.59 245.272C407.38 245.847 407.077 246.337 406.681 246.742C406.289 247.148 405.815 247.46 405.259 247.679C404.707 247.893 404.085 248 403.393 248ZM402.019 238.047V248H400.699V238.047H402.019ZM412.765 248.137C412.25 248.137 411.783 248.05 411.363 247.877C410.949 247.699 410.591 247.451 410.29 247.132C409.994 246.813 409.766 246.435 409.606 245.997C409.447 245.56 409.367 245.081 409.367 244.562V244.274C409.367 243.673 409.456 243.137 409.634 242.668C409.812 242.194 410.053 241.793 410.358 241.465C410.664 241.137 411.01 240.888 411.397 240.72C411.785 240.551 412.186 240.467 412.601 240.467C413.129 240.467 413.585 240.558 413.968 240.74C414.355 240.923 414.672 241.178 414.918 241.506C415.164 241.829 415.346 242.212 415.465 242.654C415.583 243.092 415.643 243.57 415.643 244.09V244.657H410.119V243.625H414.378V243.529C414.36 243.201 414.291 242.882 414.173 242.572C414.059 242.262 413.877 242.007 413.626 241.807C413.375 241.606 413.034 241.506 412.601 241.506C412.313 241.506 412.049 241.567 411.808 241.69C411.566 241.809 411.359 241.987 411.186 242.224C411.012 242.461 410.878 242.75 410.782 243.092C410.687 243.434 410.639 243.828 410.639 244.274V244.562C410.639 244.912 410.687 245.243 410.782 245.553C410.882 245.858 411.026 246.127 411.213 246.359C411.404 246.592 411.634 246.774 411.903 246.906C412.177 247.038 412.487 247.104 412.833 247.104C413.28 247.104 413.658 247.013 413.968 246.831C414.278 246.649 414.549 246.405 414.781 246.1L415.547 246.708C415.387 246.95 415.185 247.18 414.938 247.398C414.692 247.617 414.389 247.795 414.029 247.932C413.674 248.068 413.252 248.137 412.765 248.137ZM420.079 247.098C420.38 247.098 420.658 247.036 420.913 246.913C421.168 246.79 421.378 246.621 421.542 246.407C421.706 246.188 421.799 245.94 421.822 245.662H423.025C423.003 246.1 422.854 246.507 422.581 246.886C422.312 247.259 421.959 247.562 421.521 247.795C421.084 248.023 420.603 248.137 420.079 248.137C419.523 248.137 419.038 248.039 418.623 247.843C418.213 247.647 417.871 247.378 417.598 247.036C417.329 246.694 417.126 246.302 416.989 245.86C416.857 245.414 416.791 244.942 416.791 244.445V244.158C416.791 243.661 416.857 243.192 416.989 242.75C417.126 242.303 417.329 241.909 417.598 241.567C417.871 241.226 418.213 240.957 418.623 240.761C419.038 240.565 419.523 240.467 420.079 240.467C420.658 240.467 421.164 240.585 421.597 240.822C422.03 241.055 422.369 241.374 422.615 241.779C422.866 242.18 423.003 242.636 423.025 243.146H421.822C421.799 242.841 421.713 242.565 421.562 242.319C421.417 242.073 421.216 241.877 420.961 241.731C420.71 241.581 420.416 241.506 420.079 241.506C419.692 241.506 419.366 241.583 419.102 241.738C418.842 241.889 418.634 242.094 418.479 242.354C418.329 242.609 418.22 242.894 418.151 243.208C418.088 243.518 418.056 243.835 418.056 244.158V244.445C418.056 244.769 418.088 245.088 418.151 245.402C418.215 245.717 418.322 246.002 418.473 246.257C418.628 246.512 418.835 246.717 419.095 246.872C419.359 247.022 419.687 247.098 420.079 247.098ZM434.305 246.961V248H427.79V247.091L431.051 243.461C431.452 243.014 431.762 242.636 431.98 242.326C432.204 242.012 432.359 241.731 432.445 241.485C432.536 241.235 432.582 240.979 432.582 240.72C432.582 240.392 432.514 240.095 432.377 239.831C432.245 239.562 432.049 239.348 431.789 239.188C431.529 239.029 431.215 238.949 430.846 238.949C430.404 238.949 430.035 239.036 429.738 239.209C429.447 239.378 429.228 239.615 429.082 239.92C428.936 240.225 428.863 240.576 428.863 240.973H427.599C427.599 240.412 427.722 239.899 427.968 239.435C428.214 238.97 428.578 238.601 429.062 238.327C429.545 238.049 430.139 237.91 430.846 237.91C431.475 237.91 432.012 238.022 432.459 238.245C432.906 238.464 433.247 238.774 433.484 239.175C433.726 239.571 433.847 240.036 433.847 240.569C433.847 240.861 433.797 241.157 433.696 241.458C433.601 241.754 433.466 242.05 433.293 242.347C433.124 242.643 432.926 242.935 432.698 243.222C432.475 243.509 432.236 243.791 431.98 244.069L429.314 246.961H434.305ZM441.906 242.23V243.748C441.906 244.564 441.833 245.252 441.688 245.812C441.542 246.373 441.332 246.824 441.059 247.166C440.785 247.508 440.455 247.756 440.067 247.911C439.685 248.062 439.252 248.137 438.769 248.137C438.386 248.137 438.033 248.089 437.709 247.993C437.385 247.897 437.094 247.745 436.834 247.535C436.579 247.321 436.36 247.043 436.178 246.701C435.995 246.359 435.856 245.945 435.761 245.457C435.665 244.969 435.617 244.4 435.617 243.748V242.23C435.617 241.415 435.69 240.731 435.836 240.18C435.986 239.628 436.198 239.186 436.472 238.854C436.745 238.516 437.073 238.275 437.456 238.129C437.843 237.983 438.276 237.91 438.755 237.91C439.142 237.91 439.498 237.958 439.821 238.054C440.149 238.145 440.441 238.293 440.696 238.498C440.951 238.699 441.168 238.967 441.346 239.305C441.528 239.637 441.667 240.045 441.763 240.528C441.858 241.011 441.906 241.579 441.906 242.23ZM440.635 243.953V242.019C440.635 241.572 440.607 241.18 440.553 240.843C440.503 240.501 440.427 240.209 440.327 239.968C440.227 239.726 440.099 239.53 439.944 239.38C439.794 239.229 439.618 239.12 439.418 239.052C439.222 238.979 439.001 238.942 438.755 238.942C438.454 238.942 438.188 238.999 437.955 239.113C437.723 239.223 437.527 239.398 437.367 239.64C437.212 239.881 437.094 240.198 437.012 240.59C436.93 240.982 436.889 241.458 436.889 242.019V243.953C436.889 244.4 436.914 244.794 436.964 245.136C437.019 245.478 437.098 245.774 437.203 246.024C437.308 246.271 437.436 246.473 437.586 246.633C437.736 246.792 437.91 246.911 438.105 246.988C438.306 247.061 438.527 247.098 438.769 247.098C439.078 247.098 439.35 247.038 439.582 246.92C439.814 246.801 440.008 246.617 440.163 246.366C440.323 246.111 440.441 245.785 440.519 245.389C440.596 244.988 440.635 244.509 440.635 243.953ZM447.689 237.992V248H446.425V239.571L443.875 240.501V239.359L447.491 237.992H447.689ZM457.684 245.307C457.684 245.913 457.542 246.428 457.26 246.852C456.982 247.271 456.604 247.59 456.125 247.809C455.651 248.027 455.116 248.137 454.519 248.137C453.922 248.137 453.384 248.027 452.905 247.809C452.427 247.59 452.049 247.271 451.771 246.852C451.493 246.428 451.354 245.913 451.354 245.307C451.354 244.91 451.429 244.548 451.579 244.22C451.734 243.887 451.951 243.598 452.229 243.352C452.511 243.105 452.844 242.916 453.227 242.784C453.614 242.647 454.04 242.579 454.505 242.579C455.116 242.579 455.66 242.698 456.139 242.935C456.617 243.167 456.993 243.488 457.267 243.898C457.545 244.309 457.684 244.778 457.684 245.307ZM456.412 245.279C456.412 244.91 456.332 244.584 456.173 244.302C456.013 244.015 455.79 243.791 455.503 243.632C455.216 243.472 454.883 243.393 454.505 243.393C454.118 243.393 453.783 243.472 453.5 243.632C453.222 243.791 453.006 244.015 452.851 244.302C452.696 244.584 452.618 244.91 452.618 245.279C452.618 245.662 452.693 245.99 452.844 246.264C452.999 246.533 453.217 246.74 453.5 246.886C453.787 247.027 454.127 247.098 454.519 247.098C454.91 247.098 455.248 247.027 455.53 246.886C455.813 246.74 456.029 246.533 456.18 246.264C456.335 245.99 456.412 245.662 456.412 245.279ZM457.451 240.638C457.451 241.121 457.324 241.556 457.068 241.943C456.813 242.331 456.465 242.636 456.022 242.859C455.58 243.083 455.079 243.194 454.519 243.194C453.949 243.194 453.441 243.083 452.994 242.859C452.552 242.636 452.206 242.331 451.955 241.943C451.704 241.556 451.579 241.121 451.579 240.638C451.579 240.059 451.704 239.567 451.955 239.161C452.21 238.756 452.559 238.446 453.001 238.231C453.443 238.017 453.947 237.91 454.512 237.91C455.081 237.91 455.587 238.017 456.029 238.231C456.471 238.446 456.818 238.756 457.068 239.161C457.324 239.567 457.451 240.059 457.451 240.638ZM456.187 240.658C456.187 240.326 456.116 240.032 455.975 239.776C455.833 239.521 455.637 239.321 455.387 239.175C455.136 239.024 454.844 238.949 454.512 238.949C454.179 238.949 453.887 239.02 453.637 239.161C453.391 239.298 453.197 239.494 453.056 239.749C452.919 240.004 452.851 240.307 452.851 240.658C452.851 241 452.919 241.299 453.056 241.554C453.197 241.809 453.393 242.007 453.644 242.148C453.894 242.29 454.186 242.36 454.519 242.36C454.851 242.36 455.141 242.29 455.387 242.148C455.637 242.007 455.833 241.809 455.975 241.554C456.116 241.299 456.187 241 456.187 240.658Z" fill="#748AA1"/>
<path d="M493.307 245.095V238.047H494.619V245.095C494.619 245.751 494.485 246.305 494.216 246.756C493.947 247.207 493.576 247.551 493.102 247.788C492.632 248.021 492.092 248.137 491.481 248.137C490.871 248.137 490.328 248.032 489.854 247.822C489.381 247.613 489.009 247.294 488.74 246.865C488.471 246.437 488.337 245.897 488.337 245.245H489.656C489.656 245.664 489.734 246.008 489.889 246.277C490.044 246.546 490.258 246.744 490.531 246.872C490.809 247 491.126 247.063 491.481 247.063C491.828 247.063 492.138 246.991 492.411 246.845C492.689 246.694 492.908 246.473 493.067 246.182C493.227 245.885 493.307 245.523 493.307 245.095ZM501.024 246.735V242.928C501.024 242.636 500.965 242.383 500.847 242.169C500.733 241.95 500.56 241.782 500.327 241.663C500.095 241.545 499.808 241.485 499.466 241.485C499.147 241.485 498.867 241.54 498.625 241.649C498.388 241.759 498.201 241.902 498.064 242.08C497.932 242.258 497.866 242.449 497.866 242.654H496.602C496.602 242.39 496.67 242.128 496.807 241.868C496.943 241.608 497.139 241.374 497.395 241.164C497.654 240.95 497.964 240.781 498.324 240.658C498.689 240.531 499.094 240.467 499.541 240.467C500.079 240.467 500.553 240.558 500.963 240.74C501.378 240.923 501.701 241.198 501.934 241.567C502.171 241.932 502.289 242.39 502.289 242.941V246.387C502.289 246.633 502.31 246.895 502.351 247.173C502.396 247.451 502.462 247.69 502.549 247.891V248H501.229C501.166 247.854 501.116 247.66 501.079 247.419C501.043 247.173 501.024 246.945 501.024 246.735ZM501.243 243.516L501.257 244.404H499.979C499.618 244.404 499.297 244.434 499.015 244.493C498.732 244.548 498.495 244.632 498.304 244.746C498.112 244.86 497.966 245.004 497.866 245.177C497.766 245.345 497.716 245.544 497.716 245.771C497.716 246.004 497.768 246.216 497.873 246.407C497.978 246.599 498.135 246.751 498.345 246.865C498.559 246.975 498.821 247.029 499.131 247.029C499.518 247.029 499.86 246.947 500.156 246.783C500.452 246.619 500.687 246.419 500.86 246.182C501.038 245.945 501.134 245.715 501.147 245.491L501.688 246.1C501.656 246.291 501.569 246.503 501.428 246.735C501.286 246.968 501.097 247.191 500.86 247.405C500.628 247.615 500.35 247.79 500.026 247.932C499.707 248.068 499.347 248.137 498.946 248.137C498.445 248.137 498.005 248.039 497.627 247.843C497.253 247.647 496.962 247.385 496.752 247.057C496.547 246.724 496.444 246.353 496.444 245.942C496.444 245.546 496.522 245.197 496.677 244.896C496.832 244.591 497.055 244.338 497.347 244.138C497.638 243.933 497.989 243.778 498.399 243.673C498.81 243.568 499.268 243.516 499.773 243.516H501.243ZM505.543 242.183V248H504.278V240.604H505.475L505.543 242.183ZM505.242 244.021L504.716 244.001C504.72 243.495 504.796 243.028 504.941 242.6C505.087 242.167 505.292 241.791 505.557 241.472C505.821 241.153 506.135 240.907 506.5 240.733C506.869 240.556 507.277 240.467 507.724 240.467C508.088 240.467 508.416 240.517 508.708 240.617C509 240.713 509.248 240.868 509.453 241.082C509.663 241.296 509.822 241.574 509.932 241.916C510.041 242.253 510.096 242.666 510.096 243.153V248H508.824V243.14C508.824 242.752 508.767 242.442 508.653 242.21C508.539 241.973 508.373 241.802 508.154 241.697C507.936 241.588 507.667 241.533 507.348 241.533C507.033 241.533 506.746 241.599 506.486 241.731C506.231 241.864 506.01 242.046 505.823 242.278C505.641 242.511 505.497 242.777 505.393 243.078C505.292 243.374 505.242 243.689 505.242 244.021ZM521.874 246.961V248H515.359V247.091L518.62 243.461C519.021 243.014 519.331 242.636 519.55 242.326C519.773 242.012 519.928 241.731 520.015 241.485C520.106 241.235 520.151 240.979 520.151 240.72C520.151 240.392 520.083 240.095 519.946 239.831C519.814 239.562 519.618 239.348 519.358 239.188C519.099 239.029 518.784 238.949 518.415 238.949C517.973 238.949 517.604 239.036 517.308 239.209C517.016 239.378 516.797 239.615 516.651 239.92C516.506 240.225 516.433 240.576 516.433 240.973H515.168C515.168 240.412 515.291 239.899 515.537 239.435C515.783 238.97 516.148 238.601 516.631 238.327C517.114 238.049 517.709 237.91 518.415 237.91C519.044 237.91 519.582 238.022 520.028 238.245C520.475 238.464 520.817 238.774 521.054 239.175C521.295 239.571 521.416 240.036 521.416 240.569C521.416 240.861 521.366 241.157 521.266 241.458C521.17 241.754 521.035 242.05 520.862 242.347C520.694 242.643 520.495 242.935 520.268 243.222C520.044 243.509 519.805 243.791 519.55 244.069L516.884 246.961H521.874ZM529.476 242.23V243.748C529.476 244.564 529.403 245.252 529.257 245.812C529.111 246.373 528.901 246.824 528.628 247.166C528.354 247.508 528.024 247.756 527.637 247.911C527.254 248.062 526.821 248.137 526.338 248.137C525.955 248.137 525.602 248.089 525.278 247.993C524.955 247.897 524.663 247.745 524.403 247.535C524.148 247.321 523.929 247.043 523.747 246.701C523.565 246.359 523.426 245.945 523.33 245.457C523.234 244.969 523.187 244.4 523.187 243.748V242.23C523.187 241.415 523.259 240.731 523.405 240.18C523.556 239.628 523.768 239.186 524.041 238.854C524.314 238.516 524.643 238.275 525.025 238.129C525.413 237.983 525.846 237.91 526.324 237.91C526.712 237.91 527.067 237.958 527.391 238.054C527.719 238.145 528.01 238.293 528.266 238.498C528.521 238.699 528.737 238.967 528.915 239.305C529.097 239.637 529.236 240.045 529.332 240.528C529.428 241.011 529.476 241.579 529.476 242.23ZM528.204 243.953V242.019C528.204 241.572 528.177 241.18 528.122 240.843C528.072 240.501 527.997 240.209 527.896 239.968C527.796 239.726 527.669 239.53 527.514 239.38C527.363 239.229 527.188 239.12 526.987 239.052C526.791 238.979 526.57 238.942 526.324 238.942C526.023 238.942 525.757 238.999 525.524 239.113C525.292 239.223 525.096 239.398 524.937 239.64C524.782 239.881 524.663 240.198 524.581 240.59C524.499 240.982 524.458 241.458 524.458 242.019V243.953C524.458 244.4 524.483 244.794 524.533 245.136C524.588 245.478 524.668 245.774 524.772 246.024C524.877 246.271 525.005 246.473 525.155 246.633C525.306 246.792 525.479 246.911 525.675 246.988C525.875 247.061 526.096 247.098 526.338 247.098C526.648 247.098 526.919 247.038 527.151 246.92C527.384 246.801 527.577 246.617 527.732 246.366C527.892 246.111 528.01 245.785 528.088 245.389C528.165 244.988 528.204 244.509 528.204 243.953ZM535.259 237.992V248H533.994V239.571L531.444 240.501V239.359L535.061 237.992H535.259ZM540.235 246.94H540.365C541.094 246.94 541.687 246.838 542.143 246.633C542.598 246.428 542.949 246.152 543.195 245.806C543.441 245.459 543.61 245.07 543.701 244.637C543.792 244.199 543.838 243.75 543.838 243.29V241.766C543.838 241.314 543.785 240.913 543.681 240.562C543.58 240.212 543.439 239.918 543.257 239.681C543.079 239.444 542.876 239.264 542.648 239.141C542.421 239.018 542.179 238.956 541.924 238.956C541.632 238.956 541.37 239.015 541.138 239.134C540.91 239.248 540.716 239.41 540.557 239.619C540.402 239.829 540.283 240.075 540.201 240.357C540.119 240.64 540.078 240.948 540.078 241.28C540.078 241.576 540.115 241.864 540.188 242.142C540.26 242.42 540.372 242.67 540.522 242.894C540.673 243.117 540.86 243.295 541.083 243.427C541.311 243.554 541.577 243.618 541.883 243.618C542.165 243.618 542.43 243.563 542.676 243.454C542.926 243.34 543.147 243.188 543.339 242.996C543.535 242.8 543.69 242.579 543.804 242.333C543.922 242.087 543.991 241.829 544.009 241.561H544.61C544.61 241.939 544.535 242.312 544.385 242.682C544.239 243.046 544.034 243.379 543.77 243.68C543.505 243.98 543.195 244.222 542.84 244.404C542.484 244.582 542.097 244.671 541.678 244.671C541.186 244.671 540.759 244.575 540.399 244.384C540.039 244.192 539.743 243.937 539.511 243.618C539.283 243.299 539.112 242.944 538.998 242.552C538.889 242.155 538.834 241.754 538.834 241.349C538.834 240.875 538.9 240.43 539.032 240.016C539.164 239.601 539.36 239.236 539.62 238.922C539.88 238.603 540.201 238.354 540.584 238.177C540.971 237.999 541.418 237.91 541.924 237.91C542.493 237.91 542.979 238.024 543.38 238.252C543.781 238.48 544.107 238.785 544.357 239.168C544.613 239.551 544.799 239.981 544.918 240.46C545.036 240.938 545.096 241.431 545.096 241.937V242.395C545.096 242.91 545.062 243.434 544.993 243.967C544.929 244.495 544.804 245.001 544.617 245.484C544.435 245.967 544.168 246.4 543.817 246.783C543.466 247.161 543.008 247.462 542.443 247.686C541.883 247.904 541.19 248.014 540.365 248.014H540.235V246.94Z" fill="#748AA1"/>
<path d="M578.552 238.047V248H577.232V238.047H578.552ZM582.722 242.524V243.604H578.265V242.524H582.722ZM583.398 238.047V239.127H578.265V238.047H583.398ZM587.698 248.137C587.183 248.137 586.716 248.05 586.297 247.877C585.882 247.699 585.524 247.451 585.224 247.132C584.927 246.813 584.7 246.435 584.54 245.997C584.381 245.56 584.301 245.081 584.301 244.562V244.274C584.301 243.673 584.39 243.137 584.567 242.668C584.745 242.194 584.987 241.793 585.292 241.465C585.597 241.137 585.944 240.888 586.331 240.72C586.718 240.551 587.119 240.467 587.534 240.467C588.063 240.467 588.519 240.558 588.901 240.74C589.289 240.923 589.605 241.178 589.852 241.506C590.098 241.829 590.28 242.212 590.398 242.654C590.517 243.092 590.576 243.57 590.576 244.09V244.657H585.053V243.625H589.312V243.529C589.293 243.201 589.225 242.882 589.106 242.572C588.993 242.262 588.81 242.007 588.56 241.807C588.309 241.606 587.967 241.506 587.534 241.506C587.247 241.506 586.983 241.567 586.741 241.69C586.5 241.809 586.292 241.987 586.119 242.224C585.946 242.461 585.812 242.75 585.716 243.092C585.62 243.434 585.572 243.828 585.572 244.274V244.562C585.572 244.912 585.62 245.243 585.716 245.553C585.816 245.858 585.96 246.127 586.146 246.359C586.338 246.592 586.568 246.774 586.837 246.906C587.11 247.038 587.42 247.104 587.767 247.104C588.213 247.104 588.591 247.013 588.901 246.831C589.211 246.649 589.482 246.405 589.715 246.1L590.48 246.708C590.321 246.95 590.118 247.18 589.872 247.398C589.626 247.617 589.323 247.795 588.963 247.932C588.607 248.068 588.186 248.137 587.698 248.137ZM592.046 237.5H593.317V246.564L593.208 248H592.046V237.5ZM598.314 244.24V244.384C598.314 244.922 598.251 245.421 598.123 245.881C597.995 246.337 597.809 246.733 597.562 247.07C597.316 247.408 597.016 247.67 596.66 247.856C596.305 248.043 595.897 248.137 595.437 248.137C594.967 248.137 594.555 248.057 594.199 247.897C593.848 247.733 593.552 247.499 593.311 247.193C593.069 246.888 592.875 246.519 592.729 246.086C592.588 245.653 592.49 245.165 592.436 244.623V243.994C592.49 243.447 592.588 242.957 592.729 242.524C592.875 242.091 593.069 241.722 593.311 241.417C593.552 241.107 593.848 240.872 594.199 240.713C594.55 240.549 594.958 240.467 595.423 240.467C595.888 240.467 596.3 240.558 596.66 240.74C597.02 240.918 597.321 241.173 597.562 241.506C597.809 241.839 597.995 242.237 598.123 242.702C598.251 243.162 598.314 243.675 598.314 244.24ZM597.043 244.384V244.24C597.043 243.871 597.009 243.525 596.94 243.201C596.872 242.873 596.763 242.586 596.612 242.34C596.462 242.089 596.264 241.893 596.018 241.752C595.771 241.606 595.468 241.533 595.108 241.533C594.789 241.533 594.511 241.588 594.274 241.697C594.042 241.807 593.844 241.955 593.68 242.142C593.516 242.324 593.381 242.534 593.276 242.771C593.176 243.003 593.101 243.244 593.051 243.495V245.143C593.124 245.462 593.242 245.769 593.406 246.065C593.575 246.357 593.798 246.596 594.076 246.783C594.359 246.97 594.707 247.063 595.122 247.063C595.464 247.063 595.756 246.995 595.997 246.858C596.243 246.717 596.441 246.523 596.592 246.277C596.747 246.031 596.861 245.746 596.934 245.423C597.007 245.099 597.043 244.753 597.043 244.384ZM609.771 246.961V248H603.257V247.091L606.518 243.461C606.919 243.014 607.229 242.636 607.447 242.326C607.671 242.012 607.826 241.731 607.912 241.485C608.003 241.235 608.049 240.979 608.049 240.72C608.049 240.392 607.98 240.095 607.844 239.831C607.712 239.562 607.516 239.348 607.256 239.188C606.996 239.029 606.682 238.949 606.312 238.949C605.87 238.949 605.501 239.036 605.205 239.209C604.913 239.378 604.695 239.615 604.549 239.92C604.403 240.225 604.33 240.576 604.33 240.973H603.065C603.065 240.412 603.188 239.899 603.435 239.435C603.681 238.97 604.045 238.601 604.528 238.327C605.011 238.049 605.606 237.91 606.312 237.91C606.941 237.91 607.479 238.022 607.926 238.245C608.372 238.464 608.714 238.774 608.951 239.175C609.193 239.571 609.313 240.036 609.313 240.569C609.313 240.861 609.263 241.157 609.163 241.458C609.067 241.754 608.933 242.05 608.76 242.347C608.591 242.643 608.393 242.935 608.165 243.222C607.942 243.509 607.702 243.791 607.447 244.069L604.781 246.961H609.771ZM617.373 242.23V243.748C617.373 244.564 617.3 245.252 617.154 245.812C617.008 246.373 616.799 246.824 616.525 247.166C616.252 247.508 615.922 247.756 615.534 247.911C615.151 248.062 614.718 248.137 614.235 248.137C613.853 248.137 613.499 248.089 613.176 247.993C612.852 247.897 612.561 247.745 612.301 247.535C612.046 247.321 611.827 247.043 611.645 246.701C611.462 246.359 611.323 245.945 611.228 245.457C611.132 244.969 611.084 244.4 611.084 243.748V242.23C611.084 241.415 611.157 240.731 611.303 240.18C611.453 239.628 611.665 239.186 611.938 238.854C612.212 238.516 612.54 238.275 612.923 238.129C613.31 237.983 613.743 237.91 614.222 237.91C614.609 237.91 614.965 237.958 615.288 238.054C615.616 238.145 615.908 238.293 616.163 238.498C616.418 238.699 616.635 238.967 616.812 239.305C616.995 239.637 617.134 240.045 617.229 240.528C617.325 241.011 617.373 241.579 617.373 242.23ZM616.102 243.953V242.019C616.102 241.572 616.074 241.18 616.02 240.843C615.969 240.501 615.894 240.209 615.794 239.968C615.694 239.726 615.566 239.53 615.411 239.38C615.261 239.229 615.085 239.12 614.885 239.052C614.689 238.979 614.468 238.942 614.222 238.942C613.921 238.942 613.654 238.999 613.422 239.113C613.189 239.223 612.993 239.398 612.834 239.64C612.679 239.881 612.561 240.198 612.479 240.59C612.396 240.982 612.355 241.458 612.355 242.019V243.953C612.355 244.4 612.381 244.794 612.431 245.136C612.485 245.478 612.565 245.774 612.67 246.024C612.775 246.271 612.902 246.473 613.053 246.633C613.203 246.792 613.376 246.911 613.572 246.988C613.773 247.061 613.994 247.098 614.235 247.098C614.545 247.098 614.816 247.038 615.049 246.92C615.281 246.801 615.475 246.617 615.63 246.366C615.789 246.111 615.908 245.785 615.985 245.389C616.063 244.988 616.102 244.509 616.102 243.953ZM623.156 237.992V248H621.892V239.571L619.342 240.501V239.359L622.958 237.992H623.156ZM628.133 246.94H628.263C628.992 246.94 629.584 246.838 630.04 246.633C630.496 246.428 630.847 246.152 631.093 245.806C631.339 245.459 631.507 245.07 631.599 244.637C631.69 244.199 631.735 243.75 631.735 243.29V241.766C631.735 241.314 631.683 240.913 631.578 240.562C631.478 240.212 631.337 239.918 631.154 239.681C630.977 239.444 630.774 239.264 630.546 239.141C630.318 239.018 630.076 238.956 629.821 238.956C629.53 238.956 629.268 239.015 629.035 239.134C628.807 239.248 628.614 239.41 628.454 239.619C628.299 239.829 628.181 240.075 628.099 240.357C628.017 240.64 627.976 240.948 627.976 241.28C627.976 241.576 628.012 241.864 628.085 242.142C628.158 242.42 628.27 242.67 628.42 242.894C628.57 243.117 628.757 243.295 628.98 243.427C629.208 243.554 629.475 243.618 629.78 243.618C630.063 243.618 630.327 243.563 630.573 243.454C630.824 243.34 631.045 243.188 631.236 242.996C631.432 242.8 631.587 242.579 631.701 242.333C631.82 242.087 631.888 241.829 631.906 241.561H632.508C632.508 241.939 632.433 242.312 632.282 242.682C632.136 243.046 631.931 243.379 631.667 243.68C631.403 243.98 631.093 244.222 630.737 244.404C630.382 244.582 629.994 244.671 629.575 244.671C629.083 244.671 628.657 244.575 628.297 244.384C627.937 244.192 627.641 243.937 627.408 243.618C627.18 243.299 627.009 242.944 626.896 242.552C626.786 242.155 626.731 241.754 626.731 241.349C626.731 240.875 626.798 240.43 626.93 240.016C627.062 239.601 627.258 239.236 627.518 238.922C627.777 238.603 628.099 238.354 628.481 238.177C628.869 237.999 629.315 237.91 629.821 237.91C630.391 237.91 630.876 238.024 631.277 238.252C631.678 238.48 632.004 238.785 632.255 239.168C632.51 239.551 632.697 239.981 632.815 240.46C632.934 240.938 632.993 241.431 632.993 241.937V242.395C632.993 242.91 632.959 243.434 632.891 243.967C632.827 244.495 632.701 245.001 632.515 245.484C632.332 245.967 632.066 246.4 631.715 246.783C631.364 247.161 630.906 247.462 630.341 247.686C629.78 247.904 629.088 248.014 628.263 248.014H628.133V246.94Z" fill="#748AA1"/>
<path d="M664.795 238.047H666.073L669.334 246.161L672.588 238.047H673.873L669.826 248H668.828L664.795 238.047ZM664.378 238.047H665.506L665.69 244.117V248H664.378V238.047ZM673.155 238.047H674.283V248H672.971V244.117L673.155 238.047ZM680.771 246.735V242.928C680.771 242.636 680.711 242.383 680.593 242.169C680.479 241.95 680.306 241.782 680.073 241.663C679.841 241.545 679.554 241.485 679.212 241.485C678.893 241.485 678.613 241.54 678.371 241.649C678.134 241.759 677.947 241.902 677.811 242.08C677.678 242.258 677.612 242.449 677.612 242.654H676.348C676.348 242.39 676.416 242.128 676.553 241.868C676.689 241.608 676.885 241.374 677.141 241.164C677.4 240.95 677.71 240.781 678.07 240.658C678.435 240.531 678.84 240.467 679.287 240.467C679.825 240.467 680.299 240.558 680.709 240.74C681.124 240.923 681.447 241.198 681.68 241.567C681.917 241.932 682.035 242.39 682.035 242.941V246.387C682.035 246.633 682.056 246.895 682.097 247.173C682.142 247.451 682.208 247.69 682.295 247.891V248H680.976C680.912 247.854 680.862 247.66 680.825 247.419C680.789 247.173 680.771 246.945 680.771 246.735ZM680.989 243.516L681.003 244.404H679.725C679.365 244.404 679.043 244.434 678.761 244.493C678.478 244.548 678.241 244.632 678.05 244.746C677.858 244.86 677.713 245.004 677.612 245.177C677.512 245.345 677.462 245.544 677.462 245.771C677.462 246.004 677.514 246.216 677.619 246.407C677.724 246.599 677.881 246.751 678.091 246.865C678.305 246.975 678.567 247.029 678.877 247.029C679.264 247.029 679.606 246.947 679.902 246.783C680.199 246.619 680.433 246.419 680.606 246.182C680.784 245.945 680.88 245.715 680.894 245.491L681.434 246.1C681.402 246.291 681.315 246.503 681.174 246.735C681.033 246.968 680.843 247.191 680.606 247.405C680.374 247.615 680.096 247.79 679.772 247.932C679.453 248.068 679.093 248.137 678.692 248.137C678.191 248.137 677.751 248.039 677.373 247.843C676.999 247.647 676.708 247.385 676.498 247.057C676.293 246.724 676.19 246.353 676.19 245.942C676.19 245.546 676.268 245.197 676.423 244.896C676.578 244.591 676.801 244.338 677.093 244.138C677.384 243.933 677.735 243.778 678.146 243.673C678.556 243.568 679.014 243.516 679.52 243.516H680.989ZM685.289 241.766V248H684.024V240.604H685.255L685.289 241.766ZM687.6 240.562L687.593 241.738C687.488 241.715 687.388 241.702 687.292 241.697C687.201 241.688 687.096 241.684 686.978 241.684C686.686 241.684 686.428 241.729 686.205 241.82C685.982 241.911 685.793 242.039 685.638 242.203C685.483 242.367 685.36 242.563 685.269 242.791C685.182 243.014 685.125 243.26 685.098 243.529L684.742 243.734C684.742 243.288 684.785 242.868 684.872 242.477C684.963 242.085 685.102 241.738 685.289 241.438C685.476 241.132 685.713 240.895 686 240.727C686.292 240.553 686.638 240.467 687.039 240.467C687.13 240.467 687.235 240.478 687.354 240.501C687.472 240.519 687.554 240.54 687.6 240.562ZM698.626 246.961V248H692.111V247.091L695.372 243.461C695.773 243.014 696.083 242.636 696.302 242.326C696.525 242.012 696.68 241.731 696.767 241.485C696.858 241.235 696.903 240.979 696.903 240.72C696.903 240.392 696.835 240.095 696.698 239.831C696.566 239.562 696.37 239.348 696.11 239.188C695.851 239.029 695.536 238.949 695.167 238.949C694.725 238.949 694.356 239.036 694.06 239.209C693.768 239.378 693.549 239.615 693.403 239.92C693.257 240.225 693.185 240.576 693.185 240.973H691.92C691.92 240.412 692.043 239.899 692.289 239.435C692.535 238.97 692.9 238.601 693.383 238.327C693.866 238.049 694.461 237.91 695.167 237.91C695.796 237.91 696.334 238.022 696.78 238.245C697.227 238.464 697.569 238.774 697.806 239.175C698.047 239.571 698.168 240.036 698.168 240.569C698.168 240.861 698.118 241.157 698.018 241.458C697.922 241.754 697.787 242.05 697.614 242.347C697.446 242.643 697.247 242.935 697.02 243.222C696.796 243.509 696.557 243.791 696.302 244.069L693.636 246.961H698.626ZM706.228 242.23V243.748C706.228 244.564 706.155 245.252 706.009 245.812C705.863 246.373 705.653 246.824 705.38 247.166C705.106 247.508 704.776 247.756 704.389 247.911C704.006 248.062 703.573 248.137 703.09 248.137C702.707 248.137 702.354 248.089 702.03 247.993C701.707 247.897 701.415 247.745 701.155 247.535C700.9 247.321 700.681 247.043 700.499 246.701C700.317 246.359 700.178 245.945 700.082 245.457C699.986 244.969 699.938 244.4 699.938 243.748V242.23C699.938 241.415 700.011 240.731 700.157 240.18C700.308 239.628 700.52 239.186 700.793 238.854C701.066 238.516 701.395 238.275 701.777 238.129C702.165 237.983 702.598 237.91 703.076 237.91C703.464 237.91 703.819 237.958 704.143 238.054C704.471 238.145 704.762 238.293 705.018 238.498C705.273 238.699 705.489 238.967 705.667 239.305C705.849 239.637 705.988 240.045 706.084 240.528C706.18 241.011 706.228 241.579 706.228 242.23ZM704.956 243.953V242.019C704.956 241.572 704.929 241.18 704.874 240.843C704.824 240.501 704.749 240.209 704.648 239.968C704.548 239.726 704.421 239.53 704.266 239.38C704.115 239.229 703.94 239.12 703.739 239.052C703.543 238.979 703.322 238.942 703.076 238.942C702.775 238.942 702.509 238.999 702.276 239.113C702.044 239.223 701.848 239.398 701.688 239.64C701.534 239.881 701.415 240.198 701.333 240.59C701.251 240.982 701.21 241.458 701.21 242.019V243.953C701.21 244.4 701.235 244.794 701.285 245.136C701.34 245.478 701.42 245.774 701.524 246.024C701.629 246.271 701.757 246.473 701.907 246.633C702.058 246.792 702.231 246.911 702.427 246.988C702.627 247.061 702.848 247.098 703.09 247.098C703.4 247.098 703.671 247.038 703.903 246.92C704.136 246.801 704.329 246.617 704.484 246.366C704.644 246.111 704.762 245.785 704.84 245.389C704.917 244.988 704.956 244.509 704.956 243.953ZM712.011 237.992V248H710.746V239.571L708.196 240.501V239.359L711.812 237.992H712.011ZM716.987 246.94H717.117C717.846 246.94 718.439 246.838 718.895 246.633C719.35 246.428 719.701 246.152 719.947 245.806C720.193 245.459 720.362 245.07 720.453 244.637C720.544 244.199 720.59 243.75 720.59 243.29V241.766C720.59 241.314 720.537 240.913 720.433 240.562C720.332 240.212 720.191 239.918 720.009 239.681C719.831 239.444 719.628 239.264 719.4 239.141C719.173 239.018 718.931 238.956 718.676 238.956C718.384 238.956 718.122 239.015 717.89 239.134C717.662 239.248 717.468 239.41 717.309 239.619C717.154 239.829 717.035 240.075 716.953 240.357C716.871 240.64 716.83 240.948 716.83 241.28C716.83 241.576 716.867 241.864 716.939 242.142C717.012 242.42 717.124 242.67 717.274 242.894C717.425 243.117 717.612 243.295 717.835 243.427C718.063 243.554 718.329 243.618 718.635 243.618C718.917 243.618 719.182 243.563 719.428 243.454C719.678 243.34 719.899 243.188 720.091 242.996C720.287 242.8 720.442 242.579 720.556 242.333C720.674 242.087 720.743 241.829 720.761 241.561H721.362C721.362 241.939 721.287 242.312 721.137 242.682C720.991 243.046 720.786 243.379 720.521 243.68C720.257 243.98 719.947 244.222 719.592 244.404C719.236 244.582 718.849 244.671 718.43 244.671C717.938 244.671 717.511 244.575 717.151 244.384C716.791 244.192 716.495 243.937 716.263 243.618C716.035 243.299 715.864 242.944 715.75 242.552C715.641 242.155 715.586 241.754 715.586 241.349C715.586 240.875 715.652 240.43 715.784 240.016C715.916 239.601 716.112 239.236 716.372 238.922C716.632 238.603 716.953 238.354 717.336 238.177C717.723 237.999 718.17 237.91 718.676 237.91C719.245 237.91 719.731 238.024 720.132 238.252C720.533 238.48 720.859 238.785 721.109 239.168C721.365 239.551 721.551 239.981 721.67 240.46C721.788 240.938 721.848 241.431 721.848 241.937V242.395C721.848 242.91 721.813 243.434 721.745 243.967C721.681 244.495 721.556 245.001 721.369 245.484C721.187 245.967 720.92 246.4 720.569 246.783C720.218 247.161 719.76 247.462 719.195 247.686C718.635 247.904 717.942 248.014 717.117 248.014H716.987V246.94Z" fill="#748AA1"/>
<path d="M757.484 238.929L754.189 248H752.843L756.637 238.047H757.505L757.484 238.929ZM760.246 248L756.944 238.929L756.924 238.047H757.792L761.6 248H760.246ZM760.075 244.315V245.396H754.483V244.315H760.075ZM764.006 242.025V250.844H762.734V240.604H763.896L764.006 242.025ZM768.989 244.24V244.384C768.989 244.922 768.925 245.421 768.798 245.881C768.67 246.337 768.483 246.733 768.237 247.07C767.996 247.408 767.697 247.67 767.342 247.856C766.986 248.043 766.578 248.137 766.118 248.137C765.649 248.137 765.234 248.059 764.874 247.904C764.514 247.749 764.209 247.524 763.958 247.228C763.707 246.931 763.507 246.576 763.356 246.161C763.211 245.746 763.11 245.279 763.056 244.76V243.994C763.11 243.447 763.213 242.957 763.363 242.524C763.514 242.091 763.712 241.722 763.958 241.417C764.209 241.107 764.512 240.872 764.867 240.713C765.223 240.549 765.633 240.467 766.098 240.467C766.562 240.467 766.975 240.558 767.335 240.74C767.695 240.918 767.998 241.173 768.244 241.506C768.49 241.839 768.675 242.237 768.798 242.702C768.925 243.162 768.989 243.675 768.989 244.24ZM767.718 244.384V244.24C767.718 243.871 767.679 243.525 767.602 243.201C767.524 242.873 767.403 242.586 767.239 242.34C767.08 242.089 766.875 241.893 766.624 241.752C766.373 241.606 766.075 241.533 765.729 241.533C765.41 241.533 765.132 241.588 764.895 241.697C764.662 241.807 764.464 241.955 764.3 242.142C764.136 242.324 764.001 242.534 763.896 242.771C763.796 243.003 763.721 243.244 763.671 243.495V245.266C763.762 245.585 763.89 245.885 764.054 246.168C764.218 246.446 764.437 246.672 764.71 246.845C764.983 247.013 765.327 247.098 765.742 247.098C766.084 247.098 766.378 247.027 766.624 246.886C766.875 246.74 767.08 246.542 767.239 246.291C767.403 246.04 767.524 245.753 767.602 245.43C767.679 245.102 767.718 244.753 767.718 244.384ZM771.867 241.766V248H770.603V240.604H771.833L771.867 241.766ZM774.178 240.562L774.171 241.738C774.066 241.715 773.966 241.702 773.87 241.697C773.779 241.688 773.674 241.684 773.556 241.684C773.264 241.684 773.007 241.729 772.783 241.82C772.56 241.911 772.371 242.039 772.216 242.203C772.061 242.367 771.938 242.563 771.847 242.791C771.76 243.014 771.703 243.26 771.676 243.529L771.32 243.734C771.32 243.288 771.364 242.868 771.45 242.477C771.541 242.085 771.68 241.738 771.867 241.438C772.054 241.132 772.291 240.895 772.578 240.727C772.87 240.553 773.216 240.467 773.617 240.467C773.708 240.467 773.813 240.478 773.932 240.501C774.05 240.519 774.132 240.54 774.178 240.562ZM785.204 246.961V248H778.689V247.091L781.95 243.461C782.351 243.014 782.661 242.636 782.88 242.326C783.103 242.012 783.258 241.731 783.345 241.485C783.436 241.235 783.481 240.979 783.481 240.72C783.481 240.392 783.413 240.095 783.276 239.831C783.144 239.562 782.948 239.348 782.688 239.188C782.429 239.029 782.114 238.949 781.745 238.949C781.303 238.949 780.934 239.036 780.638 239.209C780.346 239.378 780.127 239.615 779.981 239.92C779.836 240.225 779.763 240.576 779.763 240.973H778.498C778.498 240.412 778.621 239.899 778.867 239.435C779.113 238.97 779.478 238.601 779.961 238.327C780.444 238.049 781.039 237.91 781.745 237.91C782.374 237.91 782.912 238.022 783.358 238.245C783.805 238.464 784.147 238.774 784.384 239.175C784.625 239.571 784.746 240.036 784.746 240.569C784.746 240.861 784.696 241.157 784.596 241.458C784.5 241.754 784.366 242.05 784.192 242.347C784.024 242.643 783.826 242.935 783.598 243.222C783.374 243.509 783.135 243.791 782.88 244.069L780.214 246.961H785.204ZM792.806 242.23V243.748C792.806 244.564 792.733 245.252 792.587 245.812C792.441 246.373 792.231 246.824 791.958 247.166C791.685 247.508 791.354 247.756 790.967 247.911C790.584 248.062 790.151 248.137 789.668 248.137C789.285 248.137 788.932 248.089 788.608 247.993C788.285 247.897 787.993 247.745 787.733 247.535C787.478 247.321 787.259 247.043 787.077 246.701C786.895 246.359 786.756 245.945 786.66 245.457C786.564 244.969 786.517 244.4 786.517 243.748V242.23C786.517 241.415 786.59 240.731 786.735 240.18C786.886 239.628 787.098 239.186 787.371 238.854C787.645 238.516 787.973 238.275 788.355 238.129C788.743 237.983 789.176 237.91 789.654 237.91C790.042 237.91 790.397 237.958 790.721 238.054C791.049 238.145 791.34 238.293 791.596 238.498C791.851 238.699 792.067 238.967 792.245 239.305C792.427 239.637 792.566 240.045 792.662 240.528C792.758 241.011 792.806 241.579 792.806 242.23ZM791.534 243.953V242.019C791.534 241.572 791.507 241.18 791.452 240.843C791.402 240.501 791.327 240.209 791.227 239.968C791.126 239.726 790.999 239.53 790.844 239.38C790.693 239.229 790.518 239.12 790.317 239.052C790.121 238.979 789.9 238.942 789.654 238.942C789.354 238.942 789.087 238.999 788.854 239.113C788.622 239.223 788.426 239.398 788.267 239.64C788.112 239.881 787.993 240.198 787.911 240.59C787.829 240.982 787.788 241.458 787.788 242.019V243.953C787.788 244.4 787.813 244.794 787.863 245.136C787.918 245.478 787.998 245.774 788.103 246.024C788.207 246.271 788.335 246.473 788.485 246.633C788.636 246.792 788.809 246.911 789.005 246.988C789.205 247.061 789.426 247.098 789.668 247.098C789.978 247.098 790.249 247.038 790.481 246.92C790.714 246.801 790.908 246.617 791.062 246.366C791.222 246.111 791.34 245.785 791.418 245.389C791.495 244.988 791.534 244.509 791.534 243.953ZM798.589 237.992V248H797.324V239.571L794.774 240.501V239.359L798.391 237.992H798.589ZM803.565 246.94H803.695C804.424 246.94 805.017 246.838 805.473 246.633C805.928 246.428 806.279 246.152 806.525 245.806C806.771 245.459 806.94 245.07 807.031 244.637C807.122 244.199 807.168 243.75 807.168 243.29V241.766C807.168 241.314 807.116 240.913 807.011 240.562C806.91 240.212 806.769 239.918 806.587 239.681C806.409 239.444 806.206 239.264 805.979 239.141C805.751 239.018 805.509 238.956 805.254 238.956C804.962 238.956 804.7 239.015 804.468 239.134C804.24 239.248 804.046 239.41 803.887 239.619C803.732 239.829 803.613 240.075 803.531 240.357C803.449 240.64 803.408 240.948 803.408 241.28C803.408 241.576 803.445 241.864 803.518 242.142C803.59 242.42 803.702 242.67 803.853 242.894C804.003 243.117 804.19 243.295 804.413 243.427C804.641 243.554 804.908 243.618 805.213 243.618C805.495 243.618 805.76 243.563 806.006 243.454C806.257 243.34 806.478 243.188 806.669 242.996C806.865 242.8 807.02 242.579 807.134 242.333C807.252 242.087 807.321 241.829 807.339 241.561H807.94C807.94 241.939 807.865 242.312 807.715 242.682C807.569 243.046 807.364 243.379 807.1 243.68C806.835 243.98 806.525 244.222 806.17 244.404C805.814 244.582 805.427 244.671 805.008 244.671C804.516 244.671 804.09 244.575 803.729 244.384C803.369 244.192 803.073 243.937 802.841 243.618C802.613 243.299 802.442 242.944 802.328 242.552C802.219 242.155 802.164 241.754 802.164 241.349C802.164 240.875 802.23 240.43 802.362 240.016C802.494 239.601 802.69 239.236 802.95 238.922C803.21 238.603 803.531 238.354 803.914 238.177C804.301 237.999 804.748 237.91 805.254 237.91C805.824 237.91 806.309 238.024 806.71 238.252C807.111 238.48 807.437 238.785 807.688 239.168C807.943 239.551 808.13 239.981 808.248 240.46C808.367 240.938 808.426 241.431 808.426 241.937V242.395C808.426 242.91 808.392 243.434 808.323 243.967C808.259 244.495 808.134 245.001 807.947 245.484C807.765 245.967 807.498 246.4 807.147 246.783C806.797 247.161 806.339 247.462 805.773 247.686C805.213 247.904 804.52 248.014 803.695 248.014H803.565V246.94Z" fill="#748AA1"/>
<path d="M839.906 238.047H841.185L844.445 246.161L847.699 238.047H848.984L844.938 248H843.939L839.906 238.047ZM839.489 238.047H840.617L840.802 244.117V248H839.489V238.047ZM848.267 238.047H849.395V248H848.082V244.117L848.267 238.047ZM855.882 246.735V242.928C855.882 242.636 855.823 242.383 855.704 242.169C855.59 241.95 855.417 241.782 855.185 241.663C854.952 241.545 854.665 241.485 854.323 241.485C854.004 241.485 853.724 241.54 853.482 241.649C853.245 241.759 853.059 241.902 852.922 242.08C852.79 242.258 852.724 242.449 852.724 242.654H851.459C851.459 242.39 851.527 242.128 851.664 241.868C851.801 241.608 851.997 241.374 852.252 241.164C852.512 240.95 852.822 240.781 853.182 240.658C853.546 240.531 853.952 240.467 854.398 240.467C854.936 240.467 855.41 240.558 855.82 240.74C856.235 240.923 856.559 241.198 856.791 241.567C857.028 241.932 857.146 242.39 857.146 242.941V246.387C857.146 246.633 857.167 246.895 857.208 247.173C857.254 247.451 857.32 247.69 857.406 247.891V248H856.087C856.023 247.854 855.973 247.66 855.937 247.419C855.9 247.173 855.882 246.945 855.882 246.735ZM856.101 243.516L856.114 244.404H854.836C854.476 244.404 854.155 244.434 853.872 244.493C853.59 244.548 853.353 244.632 853.161 244.746C852.97 244.86 852.824 245.004 852.724 245.177C852.623 245.345 852.573 245.544 852.573 245.771C852.573 246.004 852.626 246.216 852.73 246.407C852.835 246.599 852.993 246.751 853.202 246.865C853.416 246.975 853.678 247.029 853.988 247.029C854.376 247.029 854.717 246.947 855.014 246.783C855.31 246.619 855.545 246.419 855.718 246.182C855.896 245.945 855.991 245.715 856.005 245.491L856.545 246.1C856.513 246.291 856.426 246.503 856.285 246.735C856.144 246.968 855.955 247.191 855.718 247.405C855.485 247.615 855.207 247.79 854.884 247.932C854.565 248.068 854.205 248.137 853.804 248.137C853.302 248.137 852.863 248.039 852.484 247.843C852.111 247.647 851.819 247.385 851.609 247.057C851.404 246.724 851.302 246.353 851.302 245.942C851.302 245.546 851.379 245.197 851.534 244.896C851.689 244.591 851.912 244.338 852.204 244.138C852.496 243.933 852.847 243.778 853.257 243.673C853.667 243.568 854.125 243.516 854.631 243.516H856.101ZM861.104 247.234L863.162 240.604H864.516L861.549 249.142C861.48 249.324 861.389 249.52 861.275 249.729C861.166 249.944 861.025 250.146 860.852 250.338C860.678 250.529 860.469 250.684 860.223 250.803C859.981 250.926 859.692 250.987 859.354 250.987C859.254 250.987 859.127 250.974 858.972 250.946C858.817 250.919 858.707 250.896 858.644 250.878L858.637 249.853C858.673 249.857 858.73 249.862 858.808 249.866C858.89 249.875 858.947 249.88 858.979 249.88C859.266 249.88 859.509 249.841 859.71 249.764C859.91 249.691 860.079 249.565 860.216 249.388C860.357 249.215 860.478 248.975 860.578 248.67L861.104 247.234ZM859.594 240.604L861.515 246.346L861.843 247.679L860.934 248.144L858.213 240.604H859.594ZM875.515 246.961V248H869V247.091L872.261 243.461C872.662 243.014 872.972 242.636 873.19 242.326C873.414 242.012 873.569 241.731 873.655 241.485C873.746 241.235 873.792 240.979 873.792 240.72C873.792 240.392 873.724 240.095 873.587 239.831C873.455 239.562 873.259 239.348 872.999 239.188C872.739 239.029 872.425 238.949 872.056 238.949C871.614 238.949 871.244 239.036 870.948 239.209C870.657 239.378 870.438 239.615 870.292 239.92C870.146 240.225 870.073 240.576 870.073 240.973H868.809C868.809 240.412 868.932 239.899 869.178 239.435C869.424 238.97 869.788 238.601 870.271 238.327C870.755 238.049 871.349 237.91 872.056 237.91C872.685 237.91 873.222 238.022 873.669 238.245C874.116 238.464 874.457 238.774 874.694 239.175C874.936 239.571 875.057 240.036 875.057 240.569C875.057 240.861 875.007 241.157 874.906 241.458C874.811 241.754 874.676 242.05 874.503 242.347C874.334 242.643 874.136 242.935 873.908 243.222C873.685 243.509 873.446 243.791 873.19 244.069L870.524 246.961H875.515ZM883.116 242.23V243.748C883.116 244.564 883.043 245.252 882.897 245.812C882.752 246.373 882.542 246.824 882.269 247.166C881.995 247.508 881.665 247.756 881.277 247.911C880.895 248.062 880.462 248.137 879.979 248.137C879.596 248.137 879.243 248.089 878.919 247.993C878.595 247.897 878.304 247.745 878.044 247.535C877.789 247.321 877.57 247.043 877.388 246.701C877.205 246.359 877.066 245.945 876.971 245.457C876.875 244.969 876.827 244.4 876.827 243.748V242.23C876.827 241.415 876.9 240.731 877.046 240.18C877.196 239.628 877.408 239.186 877.682 238.854C877.955 238.516 878.283 238.275 878.666 238.129C879.053 237.983 879.486 237.91 879.965 237.91C880.352 237.91 880.708 237.958 881.031 238.054C881.359 238.145 881.651 238.293 881.906 238.498C882.161 238.699 882.378 238.967 882.556 239.305C882.738 239.637 882.877 240.045 882.973 240.528C883.068 241.011 883.116 241.579 883.116 242.23ZM881.845 243.953V242.019C881.845 241.572 881.817 241.18 881.763 240.843C881.713 240.501 881.637 240.209 881.537 239.968C881.437 239.726 881.309 239.53 881.154 239.38C881.004 239.229 880.828 239.12 880.628 239.052C880.432 238.979 880.211 238.942 879.965 238.942C879.664 238.942 879.397 238.999 879.165 239.113C878.933 239.223 878.737 239.398 878.577 239.64C878.422 239.881 878.304 240.198 878.222 240.59C878.14 240.982 878.099 241.458 878.099 242.019V243.953C878.099 244.4 878.124 244.794 878.174 245.136C878.229 245.478 878.308 245.774 878.413 246.024C878.518 246.271 878.646 246.473 878.796 246.633C878.946 246.792 879.119 246.911 879.315 246.988C879.516 247.061 879.737 247.098 879.979 247.098C880.288 247.098 880.56 247.038 880.792 246.92C881.024 246.801 881.218 246.617 881.373 246.366C881.533 246.111 881.651 245.785 881.729 245.389C881.806 244.988 881.845 244.509 881.845 243.953ZM888.899 237.992V248H887.635V239.571L885.085 240.501V239.359L888.701 237.992H888.899ZM893.876 246.94H894.006C894.735 246.94 895.327 246.838 895.783 246.633C896.239 246.428 896.59 246.152 896.836 245.806C897.082 245.459 897.251 245.07 897.342 244.637C897.433 244.199 897.479 243.75 897.479 243.29V241.766C897.479 241.314 897.426 240.913 897.321 240.562C897.221 240.212 897.08 239.918 896.897 239.681C896.72 239.444 896.517 239.264 896.289 239.141C896.061 239.018 895.82 238.956 895.564 238.956C895.273 238.956 895.011 239.015 894.778 239.134C894.55 239.248 894.357 239.41 894.197 239.619C894.042 239.829 893.924 240.075 893.842 240.357C893.76 240.64 893.719 240.948 893.719 241.28C893.719 241.576 893.755 241.864 893.828 242.142C893.901 242.42 894.013 242.67 894.163 242.894C894.313 243.117 894.5 243.295 894.724 243.427C894.951 243.554 895.218 243.618 895.523 243.618C895.806 243.618 896.07 243.563 896.316 243.454C896.567 243.34 896.788 243.188 896.979 242.996C897.175 242.8 897.33 242.579 897.444 242.333C897.563 242.087 897.631 241.829 897.649 241.561H898.251C898.251 241.939 898.176 242.312 898.025 242.682C897.88 243.046 897.674 243.379 897.41 243.68C897.146 243.98 896.836 244.222 896.48 244.404C896.125 244.582 895.738 244.671 895.318 244.671C894.826 244.671 894.4 244.575 894.04 244.384C893.68 244.192 893.384 243.937 893.151 243.618C892.924 243.299 892.753 242.944 892.639 242.552C892.529 242.155 892.475 241.754 892.475 241.349C892.475 240.875 892.541 240.43 892.673 240.016C892.805 239.601 893.001 239.236 893.261 238.922C893.521 238.603 893.842 238.354 894.225 238.177C894.612 237.999 895.059 237.91 895.564 237.91C896.134 237.91 896.619 238.024 897.021 238.252C897.422 238.48 897.747 238.785 897.998 239.168C898.253 239.551 898.44 239.981 898.559 240.46C898.677 240.938 898.736 241.431 898.736 241.937V242.395C898.736 242.91 898.702 243.434 898.634 243.967C898.57 244.495 898.445 245.001 898.258 245.484C898.076 245.967 897.809 246.4 897.458 246.783C897.107 247.161 896.649 247.462 896.084 247.686C895.523 247.904 894.831 248.014 894.006 248.014H893.876V246.94Z" fill="#748AA1"/>
<rect width="946" height="1" fill="#EBEDF4"/>
<rect y="51" width="946" height="1" fill="#EBEDF4"/>
<rect y="102" width="946" height="1" fill="#EBEDF4"/>
<rect y="153" width="946" height="1" fill="#EBEDF4"/>
<rect y="204" width="946" height="1" fill="#EBEDF4"/>
<g filter="url(#filter0_d_0_217)">
<path fill-rule="evenodd" clip-rule="evenodd" d="M482 5C479.239 5 477 7.23858 477 10V40C477 42.7614 479.239 45 482 45H513.705L516.392 48.3196C516.592 48.5669 516.969 48.5669 517.169 48.3196L519.855 45H552C554.761 45 557 42.7614 557 40V10C557 7.23858 554.761 5 552 5H482Z" fill="white"/>
</g>
<path d="M508.914 28.4619V30H502.105V28.6875L505.325 25.2354C505.649 24.8753 505.904 24.5586 506.091 24.2852C506.278 24.0072 506.412 23.7588 506.494 23.54C506.581 23.3167 506.624 23.1048 506.624 22.9043C506.624 22.6035 506.574 22.346 506.474 22.1318C506.373 21.9131 506.225 21.7445 506.029 21.626C505.838 21.5075 505.601 21.4482 505.318 21.4482C505.018 21.4482 504.758 21.5212 504.539 21.667C504.325 21.8128 504.161 22.0156 504.047 22.2754C503.938 22.5352 503.883 22.8291 503.883 23.1572H501.907C501.907 22.5648 502.049 22.0225 502.331 21.5303C502.614 21.0335 503.012 20.6393 503.527 20.3477C504.042 20.0514 504.653 19.9033 505.359 19.9033C506.057 19.9033 506.645 20.0173 507.123 20.2451C507.606 20.4684 507.971 20.792 508.217 21.2158C508.467 21.6351 508.593 22.1364 508.593 22.7197C508.593 23.0479 508.54 23.3691 508.436 23.6836C508.331 23.9935 508.18 24.3034 507.984 24.6133C507.793 24.9186 507.561 25.2285 507.287 25.543C507.014 25.8574 506.711 26.1833 506.378 26.5205L504.648 28.4619H508.914ZM512.161 24.1689H513.214C513.551 24.1689 513.829 24.112 514.048 23.998C514.267 23.8796 514.428 23.7155 514.533 23.5059C514.643 23.2917 514.697 23.0433 514.697 22.7607C514.697 22.5055 514.647 22.2799 514.547 22.084C514.451 21.8835 514.303 21.7285 514.103 21.6191C513.902 21.5052 513.649 21.4482 513.344 21.4482C513.102 21.4482 512.879 21.4961 512.674 21.5918C512.469 21.6875 512.305 21.8219 512.182 21.9951C512.059 22.1683 511.997 22.3779 511.997 22.624H510.021C510.021 22.0771 510.167 21.6009 510.459 21.1953C510.755 20.7897 511.152 20.473 511.648 20.2451C512.145 20.0173 512.692 19.9033 513.289 19.9033C513.964 19.9033 514.554 20.0127 515.06 20.2314C515.565 20.4456 515.96 20.7624 516.242 21.1816C516.525 21.6009 516.666 22.1204 516.666 22.7402C516.666 23.0547 516.593 23.36 516.447 23.6562C516.301 23.9479 516.092 24.2122 515.818 24.4492C515.549 24.6816 515.221 24.8685 514.834 25.0098C514.447 25.1465 514.011 25.2148 513.528 25.2148H512.161V24.1689ZM512.161 25.666V24.6475H513.528C514.071 24.6475 514.547 24.709 514.957 24.832C515.367 24.9551 515.711 25.1328 515.989 25.3652C516.267 25.5931 516.477 25.8643 516.618 26.1787C516.759 26.4886 516.83 26.8327 516.83 27.2109C516.83 27.6758 516.741 28.0905 516.563 28.4551C516.386 28.8151 516.135 29.1204 515.812 29.3711C515.493 29.6217 515.119 29.8132 514.69 29.9453C514.262 30.0729 513.795 30.1367 513.289 30.1367C512.87 30.1367 512.457 30.0798 512.052 29.9658C511.651 29.8473 511.286 29.6719 510.958 29.4395C510.634 29.2025 510.375 28.9062 510.179 28.5508C509.987 28.1908 509.892 27.7646 509.892 27.2725H511.867C511.867 27.5277 511.931 27.7555 512.059 27.9561C512.186 28.1566 512.362 28.3138 512.585 28.4277C512.813 28.5417 513.066 28.5986 513.344 28.5986C513.658 28.5986 513.927 28.5417 514.15 28.4277C514.378 28.3092 514.551 28.1452 514.67 27.9355C514.793 27.7214 514.854 27.473 514.854 27.1904C514.854 26.8258 514.788 26.5342 514.656 26.3154C514.524 26.0921 514.335 25.9281 514.089 25.8232C513.843 25.7184 513.551 25.666 513.214 25.666H512.161ZM525.156 26.2812V27.8262H517.985L517.89 26.6299L522.039 20.0469H523.604L521.909 22.8838L519.845 26.2812H525.156ZM524.028 20.0469V30H522.06V20.0469H524.028ZM528.075 25.4678L526.503 25.0918L527.07 20.0469H532.662V21.6396H528.69L528.444 23.8477C528.576 23.7702 528.777 23.6882 529.046 23.6016C529.315 23.5104 529.616 23.4648 529.948 23.4648C530.431 23.4648 530.86 23.54 531.233 23.6904C531.607 23.8408 531.924 24.0596 532.184 24.3467C532.448 24.6338 532.648 24.9847 532.785 25.3994C532.922 25.8141 532.99 26.2835 532.99 26.8076C532.99 27.2497 532.922 27.6712 532.785 28.0723C532.648 28.4688 532.441 28.8242 532.163 29.1387C531.885 29.4486 531.536 29.6924 531.117 29.8701C530.698 30.0479 530.201 30.1367 529.627 30.1367C529.199 30.1367 528.784 30.0729 528.383 29.9453C527.986 29.8177 527.629 29.6286 527.31 29.3779C526.995 29.1273 526.742 28.8242 526.551 28.4688C526.364 28.1087 526.266 27.6986 526.257 27.2383H528.212C528.239 27.5208 528.312 27.7646 528.431 27.9697C528.554 28.1702 528.715 28.3252 528.916 28.4346C529.117 28.5439 529.351 28.5986 529.62 28.5986C529.871 28.5986 530.085 28.5508 530.263 28.4551C530.44 28.3594 530.584 28.2272 530.693 28.0586C530.803 27.8854 530.882 27.6849 530.933 27.457C530.987 27.2246 531.015 26.974 531.015 26.7051C531.015 26.4362 530.983 26.1924 530.919 25.9736C530.855 25.7549 530.757 25.5658 530.625 25.4062C530.493 25.2467 530.324 25.1237 530.119 25.0371C529.919 24.9505 529.684 24.9072 529.415 24.9072C529.05 24.9072 528.768 24.9642 528.567 25.0781C528.371 25.1921 528.207 25.3219 528.075 25.4678Z" fill="#31394D"/>
<path d="M76 126C76 126 135.243 143.294 169.74 142.191C204.238 141.089 230.658 120.19 257.841 120.19C285.024 120.19 307.358 142.191 345.442 142.191C383.526 142.191 405.599 89.1797 430.131 89.1797C454.664 89.1797 501.338 120.19 524.489 120.19C547.64 120.19 587.982 82.5574 611.14 82.5574C634.299 82.5574 639.477 89.1797 697.561 89.1797C755.645 89.1797 741.91 74.1287 781.801 74.1287C821.691 74.1287 837.566 97.3945 871.383 126" stroke="#E5E9F2" stroke-width="2" stroke-linecap="round" stroke-linejoin="round"/>
<g filter="url(#filter1_d_0_217)">
<path d="M76 166C76 166 135.243 123.66 169.74 122.557C204.238 121.455 230.658 160.19 257.841 160.19C285.024 160.19 307.358 77.4564 345.442 77.4564C383.526 77.4564 405.599 110.764 430.131 110.764C454.664 110.764 476.239 77.4564 517.475 77.4564C558.71 77.4564 587.982 122.557 611.14 122.557C634.299 122.557 639.477 81.7932 697.561 81.7932C755.645 81.7932 741.91 46 781.801 46C821.691 46 781.801 96.7422 871 109.529" stroke="#4072EE" stroke-width="2" stroke-linecap="round" stroke-linejoin="round"/>
</g>
<rect x="509" y="69" width="16" height="16" rx="8" fill="white" stroke="#4072EE" stroke-width="4"/>
<rect opacity="0.1" x="497.5" y="57.5" width="39" height="39" rx="19.5" fill="url(#paint0_radial_0_217)" stroke="#4072EE"/>
<defs>
<filter id="filter0_d_0_217" x="467" y="0" width="100" height="63.505" filterUnits="userSpaceOnUse" color-interpolation-filters="sRGB">
<feFlood flood-opacity="0" result="BackgroundImageFix"/>
<feColorMatrix in="SourceAlpha" type="matrix" values="0 0 0 0 0 0 0 0 0 0 0 0 0 0 0 0 0 0 127 0" result="hardAlpha"/>
<feOffset dy="5"/>
<feGaussianBlur stdDeviation="5"/>
<feColorMatrix type="matrix" values="0 0 0 0 0.795239 0 0 0 0 0.819323 0 0 0 0 0.873512 0 0 0 0.5 0"/>
<feBlend mode="normal" in2="BackgroundImageFix" result="effect1_dropShadow_0_217"/>
<feBlend mode="normal" in="SourceGraphic" in2="effect1_dropShadow_0_217" result="shape"/>
</filter>
<filter id="filter1_d_0_217" x="64.9999" y="45" width="817" height="142" filterUnits="userSpaceOnUse" color-interpolation-filters="sRGB">
<feFlood flood-opacity="0" result="BackgroundImageFix"/>
<feColorMatrix in="SourceAlpha" type="matrix" values="0 0 0 0 0 0 0 0 0 0 0 0 0 0 0 0 0 0 127 0" result="hardAlpha"/>
<feOffset dy="10"/>
<feGaussianBlur stdDeviation="5"/>
<feColorMatrix type="matrix" values="0 0 0 0 0 0 0 0 0 0 0 0 0 0 0 0 0 0 0.2 0"/>
<feBlend mode="normal" in2="BackgroundImageFix" result="effect1_dropShadow_0_217"/>
<feBlend mode="normal" in="SourceGraphic" in2="effect1_dropShadow_0_217" result="shape"/>
</filter>
<radialGradient id="paint0_radial_0_217" cx="0" cy="0" r="1" gradientUnits="userSpaceOnUse" gradientTransform="translate(517 77) rotate(90) scale(20)">
<stop stop-color="#74AAF8"/>
<stop offset="1" stop-color="#4072EE" stop-opacity="0.2"/>
</radialGradient>
</defs>
</svg>
